<?xml version="1.0" encoding="utf-8" standalone="no"?>
<!DOCTYPE svg PUBLIC "-//W3C//DTD SVG 1.1//EN"
  "http://www.w3.org/Graphics/SVG/1.1/DTD/svg11.dtd">
<svg height="360.125pt" version="1.1" viewBox="0 0 845.365625 360.125" width="845.365625pt" xmlns="http://www.w3.org/2000/svg" xmlns:xlink="http://www.w3.org/1999/xlink">
 <metadata>
  <rdf:RDF xmlns:cc="http://creativecommons.org/ns#" xmlns:dc="http://purl.org/dc/elements/1.1/" xmlns:rdf="http://www.w3.org/1999/02/22-rdf-syntax-ns#">
   <cc:Work>
    <dc:type rdf:resource="http://purl.org/dc/dcmitype/StillImage"/>
    <dc:date>2021-11-09T18:13:34.660211</dc:date>
    <dc:format>image/svg+xml</dc:format>
    <dc:creator>
     <cc:Agent>
      <dc:title>Matplotlib v3.4.3, https://matplotlib.org/</dc:title>
     </cc:Agent>
    </dc:creator>
   </cc:Work>
  </rdf:RDF>
 </metadata>
 <defs>
  <style type="text/css">*{stroke-linecap:butt;stroke-linejoin:round;}</style>
 </defs>
 <g id="figure_1">
  <g id="patch_1">
   <path d="M 0 360.125 
L 845.365625 360.125 
L 845.365625 0 
L 0 0 
z
" style="fill:none;"/>
  </g>
  <g id="axes_1">
   <g id="patch_2">
    <path d="M 56.965625 333.36 
L 412.056534 333.36 
L 412.056534 7.2 
L 56.965625 7.2 
z
" style="fill:#ffffff;"/>
   </g>
   <g id="matplotlib.axis_1">
    <g id="text_1">
     <!-- Features -->
     <g transform="translate(203.85483 349.455)scale(0.16 -0.16)">
      <defs>
       <path d="M 3747 3325 
L 3513 3325 
Q 3447 3572 3239 3853 
Q 3031 4134 2841 4163 
Q 2744 4175 2611 4181 
Q 2478 4188 2309 4188 
L 1566 4188 
L 1566 2406 
L 2075 2406 
Q 2306 2406 2434 2454 
Q 2563 2503 2653 2603 
Q 2716 2672 2767 2817 
Q 2819 2963 2834 3128 
L 3072 3128 
L 3072 1388 
L 2834 1388 
Q 2825 1525 2770 1700 
Q 2716 1875 2653 1953 
Q 2559 2069 2417 2111 
Q 2275 2153 2075 2153 
L 1566 2153 
L 1566 625 
Q 1566 522 1606 440 
Q 1647 359 1750 309 
Q 1797 288 1953 256 
Q 2109 225 2191 222 
L 2191 0 
L 269 0 
L 269 222 
Q 363 228 519 242 
Q 675 256 722 278 
Q 816 319 858 398 
Q 900 478 900 591 
L 900 3791 
Q 900 3894 865 3973 
Q 831 4053 722 4103 
Q 638 4144 495 4175 
Q 353 4206 269 4213 
L 269 4434 
L 3747 4434 
L 3747 3325 
z
" id="Georgia-46" transform="scale(0.015625)"/>
       <path d="M 2963 725 
Q 2769 356 2444 137 
Q 2119 -81 1697 -81 
Q 1325 -81 1045 50 
Q 766 181 584 406 
Q 403 631 314 931 
Q 225 1231 225 1566 
Q 225 1866 320 2155 
Q 416 2444 600 2675 
Q 778 2897 1042 3033 
Q 1306 3169 1634 3169 
Q 1972 3169 2212 3062 
Q 2453 2956 2603 2772 
Q 2747 2597 2817 2359 
Q 2888 2122 2888 1844 
L 2888 1638 
L 847 1638 
Q 847 1334 905 1087 
Q 963 841 1088 653 
Q 1209 472 1406 367 
Q 1603 263 1875 263 
Q 2153 263 2354 392 
Q 2556 522 2744 859 
L 2963 725 
z
M 2272 1900 
Q 2272 2075 2242 2275 
Q 2213 2475 2147 2609 
Q 2075 2753 1950 2843 
Q 1825 2934 1628 2934 
Q 1300 2934 1083 2661 
Q 866 2388 847 1900 
L 2272 1900 
z
" id="Georgia-65" transform="scale(0.015625)"/>
       <path d="M 3144 56 
Q 2997 3 2886 -30 
Q 2775 -63 2634 -63 
Q 2391 -63 2245 51 
Q 2100 166 2059 384 
L 2041 384 
Q 1838 159 1605 40 
Q 1372 -78 1044 -78 
Q 697 -78 473 134 
Q 250 347 250 691 
Q 250 869 300 1009 
Q 350 1150 450 1263 
Q 528 1356 656 1429 
Q 784 1503 897 1547 
Q 1038 1600 1467 1744 
Q 1897 1888 2047 1969 
L 2047 2278 
Q 2047 2319 2030 2434 
Q 2013 2550 1956 2653 
Q 1894 2769 1780 2855 
Q 1666 2941 1456 2941 
Q 1313 2941 1189 2892 
Q 1066 2844 1016 2791 
Q 1016 2728 1045 2606 
Q 1075 2484 1075 2381 
Q 1075 2272 976 2181 
Q 878 2091 703 2091 
Q 547 2091 473 2202 
Q 400 2313 400 2450 
Q 400 2594 501 2725 
Q 603 2856 766 2959 
Q 906 3047 1106 3108 
Q 1306 3169 1497 3169 
Q 1759 3169 1954 3133 
Q 2150 3097 2309 2978 
Q 2469 2863 2551 2664 
Q 2634 2466 2634 2153 
Q 2634 1706 2625 1361 
Q 2616 1016 2616 606 
Q 2616 484 2658 412 
Q 2700 341 2788 291 
Q 2834 263 2936 259 
Q 3038 256 3144 256 
L 3144 56 
z
M 2053 1706 
Q 1788 1628 1588 1553 
Q 1388 1478 1216 1366 
Q 1059 1259 968 1114 
Q 878 969 878 769 
Q 878 509 1014 387 
Q 1150 266 1359 266 
Q 1581 266 1750 373 
Q 1919 481 2034 628 
L 2053 1706 
z
" id="Georgia-61" transform="scale(0.015625)"/>
       <path d="M 2128 134 
Q 1925 50 1744 -8 
Q 1563 -66 1300 -66 
Q 913 -66 755 129 
Q 597 325 597 681 
L 597 2769 
L 41 2769 
L 41 3069 
L 609 3069 
L 609 4028 
L 1178 4028 
L 1178 3069 
L 2063 3069 
L 2063 2769 
L 1184 2769 
L 1184 1047 
Q 1184 853 1198 723 
Q 1213 594 1266 497 
Q 1316 406 1416 359 
Q 1516 313 1684 313 
Q 1763 313 1914 327 
Q 2066 341 2128 363 
L 2128 134 
z
" id="Georgia-74" transform="scale(0.015625)"/>
       <path d="M 3528 56 
L 2525 -13 
L 2478 31 
L 2478 422 
L 2459 422 
Q 2384 344 2290 255 
Q 2197 166 2075 94 
Q 1934 9 1803 -34 
Q 1672 -78 1431 -78 
Q 1022 -78 808 189 
Q 594 456 594 966 
L 594 2441 
Q 594 2553 551 2629 
Q 509 2706 428 2763 
Q 372 2800 287 2817 
Q 203 2834 109 2841 
L 109 3044 
L 1138 3119 
L 1184 3075 
L 1184 934 
Q 1184 600 1334 431 
Q 1484 263 1694 263 
Q 1866 263 2000 316 
Q 2134 369 2225 441 
Q 2309 506 2373 579 
Q 2438 653 2472 716 
L 2472 2463 
Q 2472 2566 2428 2645 
Q 2384 2725 2306 2781 
Q 2250 2819 2139 2826 
Q 2028 2834 1891 2841 
L 1891 3044 
L 3009 3119 
L 3056 3075 
L 3056 628 
Q 3056 522 3100 447 
Q 3144 372 3222 319 
Q 3278 284 3356 273 
Q 3434 263 3528 259 
L 3528 56 
z
" id="Georgia-75" transform="scale(0.015625)"/>
       <path d="M 2584 2684 
Q 2584 2525 2506 2401 
Q 2428 2278 2266 2278 
Q 2091 2278 1998 2368 
Q 1906 2459 1906 2569 
Q 1906 2638 1917 2694 
Q 1928 2750 1938 2806 
Q 1791 2806 1594 2687 
Q 1397 2569 1259 2350 
L 1259 556 
Q 1259 447 1301 378 
Q 1344 309 1434 275 
Q 1513 244 1636 228 
Q 1759 213 1850 206 
L 1850 0 
L 225 0 
L 225 206 
Q 297 213 373 219 
Q 450 225 506 244 
Q 594 272 636 342 
Q 678 413 678 525 
L 678 2428 
Q 678 2525 633 2619 
Q 588 2713 506 2769 
Q 447 2806 365 2823 
Q 284 2841 191 2847 
L 191 3050 
L 1216 3119 
L 1259 3075 
L 1259 2641 
L 1275 2641 
Q 1469 2894 1706 3025 
Q 1944 3156 2141 3156 
Q 2338 3156 2461 3028 
Q 2584 2900 2584 2684 
z
" id="Georgia-72" transform="scale(0.015625)"/>
       <path d="M 2259 1509 
Q 2388 1397 2456 1250 
Q 2525 1103 2525 891 
Q 2525 463 2204 191 
Q 1884 -81 1375 -81 
Q 1106 -81 879 16 
Q 653 113 556 194 
L 494 -9 
L 259 -9 
L 228 1063 
L 444 1063 
Q 469 941 550 778 
Q 631 616 747 484 
Q 869 347 1039 253 
Q 1209 159 1422 159 
Q 1722 159 1884 295 
Q 2047 431 2047 684 
Q 2047 816 1995 911 
Q 1944 1006 1844 1078 
Q 1741 1150 1591 1208 
Q 1441 1266 1256 1322 
Q 1109 1366 929 1442 
Q 750 1519 622 1622 
Q 484 1731 396 1890 
Q 309 2050 309 2266 
Q 309 2644 590 2906 
Q 872 3169 1344 3169 
Q 1525 3169 1714 3122 
Q 1903 3075 2022 3009 
L 2094 3172 
L 2319 3172 
L 2366 2181 
L 2150 2181 
Q 2084 2513 1867 2720 
Q 1650 2928 1338 2928 
Q 1081 2928 934 2800 
Q 788 2672 788 2491 
Q 788 2350 836 2256 
Q 884 2163 981 2097 
Q 1075 2034 1217 1979 
Q 1359 1925 1569 1856 
Q 1775 1791 1958 1703 
Q 2141 1616 2259 1509 
z
" id="Georgia-73" transform="scale(0.015625)"/>
      </defs>
      <use xlink:href="#Georgia-46"/>
      <use x="59.912109" xlink:href="#Georgia-65"/>
      <use x="108.251953" xlink:href="#Georgia-61"/>
      <use x="158.642578" xlink:href="#Georgia-74"/>
      <use x="193.164062" xlink:href="#Georgia-75"/>
      <use x="250.683594" xlink:href="#Georgia-72"/>
      <use x="291.650391" xlink:href="#Georgia-65"/>
      <use x="339.990234" xlink:href="#Georgia-73"/>
     </g>
    </g>
   </g>
   <g id="matplotlib.axis_2">
    <g id="ytick_1">
     <g id="line2d_1">
      <path clip-path="url(#p900e88b8d8)" d="M 56.965625 333.36 
L 412.056534 333.36 
" style="fill:none;stroke:#b0b0b0;stroke-linecap:square;stroke-width:0.8;"/>
     </g>
     <g id="line2d_2">
      <defs>
       <path d="M 0 0 
L -3.5 0 
" id="mdf96f0fe19" style="stroke:#000000;stroke-width:0.8;"/>
      </defs>
      <g>
       <use style="stroke:#000000;stroke-width:0.8;" x="56.965625" xlink:href="#mdf96f0fe19" y="333.36"/>
      </g>
     </g>
     <g id="text_2">
      <!-- 0 -->
      <g transform="translate(41.373125 338.651563)scale(0.14 -0.14)">
       <defs>
        <path d="M 3209 2919 
Q 3409 2678 3507 2354 
Q 3606 2031 3606 1678 
Q 3606 1253 3484 917 
Q 3363 581 3150 359 
Q 2931 131 2631 15 
Q 2331 -100 1963 -100 
Q 1559 -100 1243 34 
Q 928 169 731 403 
Q 525 647 423 973 
Q 322 1300 322 1678 
Q 322 2050 420 2362 
Q 519 2675 728 2928 
Q 928 3172 1243 3312 
Q 1559 3453 1966 3453 
Q 2394 3453 2700 3309 
Q 3006 3166 3209 2919 
z
M 2916 1678 
Q 2916 2422 2661 2831 
Q 2406 3241 1969 3241 
Q 1525 3241 1269 2831 
Q 1013 2422 1013 1678 
Q 1013 972 1258 542 
Q 1503 113 1963 113 
Q 2422 113 2669 542 
Q 2916 972 2916 1678 
z
" id="Georgia-30" transform="scale(0.015625)"/>
       </defs>
       <use xlink:href="#Georgia-30"/>
      </g>
     </g>
    </g>
    <g id="ytick_2">
     <g id="line2d_3">
      <path clip-path="url(#p900e88b8d8)" d="M 56.965625 278.22328 
L 412.056534 278.22328 
" style="fill:none;stroke:#b0b0b0;stroke-linecap:square;stroke-width:0.8;"/>
     </g>
     <g id="line2d_4">
      <g>
       <use style="stroke:#000000;stroke-width:0.8;" x="56.965625" xlink:href="#mdf96f0fe19" y="278.22328"/>
      </g>
     </g>
     <g id="text_3">
      <!-- 20 -->
      <g transform="translate(33.552813 283.514842)scale(0.14 -0.14)">
       <defs>
        <path d="M 3272 0 
L 344 0 
L 344 425 
Q 428 522 578 642 
Q 728 763 934 903 
Q 1059 988 1234 1088 
Q 1409 1188 1631 1306 
Q 1878 1438 2011 1538 
Q 2144 1638 2253 1784 
Q 2325 1881 2369 2026 
Q 2413 2172 2413 2441 
Q 2413 2831 2203 3014 
Q 1994 3197 1666 3197 
Q 1463 3197 1281 3117 
Q 1100 3038 1009 2897 
Q 1031 2797 1064 2659 
Q 1097 2522 1097 2391 
Q 1097 2272 998 2180 
Q 900 2088 706 2088 
Q 550 2088 465 2195 
Q 381 2303 381 2484 
Q 381 2653 475 2823 
Q 569 2994 744 3138 
Q 916 3278 1169 3365 
Q 1422 3453 1716 3453 
Q 2356 3453 2732 3167 
Q 3109 2881 3109 2403 
Q 3109 2175 3042 1987 
Q 2975 1800 2825 1656 
Q 2659 1497 2437 1383 
Q 2216 1269 1759 1066 
Q 1488 944 1253 811 
Q 1019 678 869 553 
L 3272 553 
L 3272 0 
z
" id="Georgia-32" transform="scale(0.015625)"/>
       </defs>
       <use xlink:href="#Georgia-32"/>
       <use x="55.859375" xlink:href="#Georgia-30"/>
      </g>
     </g>
    </g>
    <g id="ytick_3">
     <g id="line2d_5">
      <path clip-path="url(#p900e88b8d8)" d="M 56.965625 223.08656 
L 412.056534 223.08656 
" style="fill:none;stroke:#b0b0b0;stroke-linecap:square;stroke-width:0.8;"/>
     </g>
     <g id="line2d_6">
      <g>
       <use style="stroke:#000000;stroke-width:0.8;" x="56.965625" xlink:href="#mdf96f0fe19" y="223.08656"/>
      </g>
     </g>
     <g id="text_4">
      <!-- 40 -->
      <g transform="translate(33.463125 228.378122)scale(0.14 -0.14)">
       <defs>
        <path d="M 3388 281 
L 2753 281 
L 2753 -1141 
L 2153 -1141 
L 2153 281 
L 153 281 
L 153 763 
L 2344 3434 
L 2753 3434 
L 2753 691 
L 3388 691 
L 3388 281 
z
M 2153 691 
L 2153 2738 
L 466 691 
L 2153 691 
z
" id="Georgia-34" transform="scale(0.015625)"/>
       </defs>
       <use xlink:href="#Georgia-34"/>
       <use x="56.494141" xlink:href="#Georgia-30"/>
      </g>
     </g>
    </g>
    <g id="ytick_4">
     <g id="line2d_7">
      <path clip-path="url(#p900e88b8d8)" d="M 56.965625 167.94984 
L 412.056534 167.94984 
" style="fill:none;stroke:#b0b0b0;stroke-linecap:square;stroke-width:0.8;"/>
     </g>
     <g id="line2d_8">
      <g>
       <use style="stroke:#000000;stroke-width:0.8;" x="56.965625" xlink:href="#mdf96f0fe19" y="167.94984"/>
      </g>
     </g>
     <g id="text_5">
      <!-- 60 -->
      <g transform="translate(33.45 173.241402)scale(0.14 -0.14)">
       <defs>
        <path d="M 3359 1441 
Q 3359 1116 3242 831 
Q 3125 547 2928 347 
Q 2700 119 2423 9 
Q 2147 -100 1847 -100 
Q 1500 -100 1219 28 
Q 938 156 741 391 
Q 541 628 431 972 
Q 322 1316 322 1744 
Q 322 2859 986 3625 
Q 1650 4391 2766 4544 
L 2822 4263 
L 2541 4213 
Q 1863 3994 1492 3531 
Q 1122 3069 1013 2409 
Q 1281 2644 1543 2741 
Q 1806 2838 2097 2838 
Q 2619 2838 2989 2438 
Q 3359 2038 3359 1441 
z
M 2681 1356 
Q 2681 1863 2448 2169 
Q 2216 2475 1825 2475 
Q 1591 2475 1389 2387 
Q 1188 2300 1000 2094 
Q 997 2056 990 1920 
Q 984 1784 984 1706 
Q 984 975 1223 561 
Q 1463 147 1853 147 
Q 2225 147 2453 470 
Q 2681 794 2681 1356 
z
" id="Georgia-36" transform="scale(0.015625)"/>
       </defs>
       <use xlink:href="#Georgia-36"/>
       <use x="56.591797" xlink:href="#Georgia-30"/>
      </g>
     </g>
    </g>
    <g id="ytick_5">
     <g id="line2d_9">
      <path clip-path="url(#p900e88b8d8)" d="M 56.965625 112.813119 
L 412.056534 112.813119 
" style="fill:none;stroke:#b0b0b0;stroke-linecap:square;stroke-width:0.8;"/>
     </g>
     <g id="line2d_10">
      <g>
       <use style="stroke:#000000;stroke-width:0.8;" x="56.965625" xlink:href="#mdf96f0fe19" y="112.813119"/>
      </g>
     </g>
     <g id="text_6">
      <!-- 80 -->
      <g transform="translate(33.025625 118.104682)scale(0.14 -0.14)">
       <defs>
        <path d="M 3491 1175 
Q 3491 650 3037 272 
Q 2584 -106 1847 -106 
Q 1156 -106 740 241 
Q 325 588 325 1134 
Q 325 1538 570 1808 
Q 816 2078 1297 2266 
Q 900 2488 703 2753 
Q 506 3019 506 3353 
Q 506 3863 939 4206 
Q 1372 4550 1975 4550 
Q 2578 4550 2951 4225 
Q 3325 3900 3325 3409 
Q 3325 3094 3119 2811 
Q 2913 2528 2513 2347 
Q 3031 2125 3261 1856 
Q 3491 1588 3491 1175 
z
M 2734 3444 
Q 2734 3825 2507 4064 
Q 2281 4303 1928 4303 
Q 1575 4303 1350 4073 
Q 1125 3844 1125 3503 
Q 1125 3175 1381 2947 
Q 1638 2719 2294 2459 
Q 2528 2609 2631 2856 
Q 2734 3103 2734 3444 
z
M 2866 1028 
Q 2866 1225 2781 1373 
Q 2697 1522 2538 1644 
Q 2384 1763 2111 1892 
Q 1838 2022 1519 2156 
Q 1219 1994 1078 1742 
Q 938 1491 938 1169 
Q 938 709 1208 426 
Q 1478 144 1928 144 
Q 2359 144 2612 394 
Q 2866 644 2866 1028 
z
" id="Georgia-38" transform="scale(0.015625)"/>
       </defs>
       <use xlink:href="#Georgia-38"/>
       <use x="59.619141" xlink:href="#Georgia-30"/>
      </g>
     </g>
    </g>
    <g id="ytick_6">
     <g id="line2d_11">
      <path clip-path="url(#p900e88b8d8)" d="M 56.965625 57.676399 
L 412.056534 57.676399 
" style="fill:none;stroke:#b0b0b0;stroke-linecap:square;stroke-width:0.8;"/>
     </g>
     <g id="line2d_12">
      <g>
       <use style="stroke:#000000;stroke-width:0.8;" x="56.965625" xlink:href="#mdf96f0fe19" y="57.676399"/>
      </g>
     </g>
     <g id="text_7">
      <!-- 100 -->
      <g transform="translate(26.765 62.967962)scale(0.14 -0.14)">
       <defs>
        <path d="M 2528 0 
L 422 0 
L 422 222 
Q 516 228 714 248 
Q 913 269 988 291 
Q 1084 322 1136 392 
Q 1188 463 1188 603 
L 1188 2797 
L 409 2797 
L 409 3059 
L 581 3059 
Q 919 3059 1186 3184 
Q 1453 3309 1569 3453 
L 1828 3453 
Q 1819 3250 1809 2978 
Q 1800 2706 1800 2491 
L 1800 638 
Q 1800 528 1848 442 
Q 1897 356 1988 316 
Q 2069 281 2253 253 
Q 2438 225 2528 222 
L 2528 0 
z
" id="Georgia-31" transform="scale(0.015625)"/>
       </defs>
       <use xlink:href="#Georgia-31"/>
       <use x="42.96875" xlink:href="#Georgia-30"/>
       <use x="104.345703" xlink:href="#Georgia-30"/>
      </g>
     </g>
    </g>
    <g id="text_8">
     <!-- Mean Decrease Accuracy -->
     <g transform="translate(19.295 258.28875)rotate(-90)scale(0.16 -0.16)">
      <defs>
       <path d="M 5644 0 
L 3684 0 
L 3684 222 
Q 3791 225 3958 244 
Q 4125 263 4188 297 
Q 4284 356 4329 432 
Q 4375 509 4375 625 
L 4375 3850 
L 4328 3850 
L 2816 72 
L 2659 72 
L 1219 3928 
L 1178 3928 
L 1178 1281 
Q 1178 897 1226 697 
Q 1275 497 1375 409 
Q 1444 344 1659 284 
Q 1875 225 1941 222 
L 1941 0 
L 150 0 
L 150 222 
Q 291 234 445 268 
Q 600 303 684 372 
Q 794 459 834 640 
Q 875 822 875 1247 
L 875 3516 
Q 875 3713 828 3838 
Q 781 3963 694 4041 
Q 597 4125 456 4165 
Q 316 4206 178 4213 
L 178 4434 
L 1691 4434 
L 2959 1109 
L 4044 3891 
Q 4103 4044 4145 4211 
Q 4188 4378 4191 4434 
L 5638 4434 
L 5638 4213 
Q 5550 4209 5414 4184 
Q 5278 4159 5216 4138 
Q 5109 4100 5071 4012 
Q 5034 3925 5034 3822 
L 5034 625 
Q 5034 516 5071 441 
Q 5109 366 5216 309 
Q 5272 278 5415 251 
Q 5559 225 5644 222 
L 5644 0 
z
" id="Georgia-4d" transform="scale(0.015625)"/>
       <path d="M 3628 0 
L 2119 0 
L 2119 206 
Q 2191 213 2277 219 
Q 2363 225 2419 244 
Q 2506 272 2548 342 
Q 2591 413 2591 525 
L 2591 2109 
Q 2591 2438 2436 2616 
Q 2281 2794 2059 2794 
Q 1894 2794 1756 2742 
Q 1619 2691 1513 2616 
Q 1409 2544 1348 2461 
Q 1288 2378 1259 2328 
L 1259 556 
Q 1259 450 1303 381 
Q 1347 313 1434 275 
Q 1500 244 1576 228 
Q 1653 213 1734 206 
L 1734 0 
L 225 0 
L 225 206 
Q 297 213 373 219 
Q 450 225 506 244 
Q 594 272 636 342 
Q 678 413 678 525 
L 678 2428 
Q 678 2534 633 2623 
Q 588 2713 506 2769 
Q 447 2806 365 2823 
Q 284 2841 191 2847 
L 191 3050 
L 1216 3119 
L 1259 3075 
L 1259 2641 
L 1275 2641 
Q 1350 2716 1462 2820 
Q 1575 2925 1675 2991 
Q 1791 3066 1950 3116 
Q 2109 3166 2309 3166 
Q 2753 3166 2967 2889 
Q 3181 2613 3181 2153 
L 3181 550 
Q 3181 441 3218 373 
Q 3256 306 3347 269 
Q 3422 238 3476 225 
Q 3531 213 3628 206 
L 3628 0 
z
" id="Georgia-6e" transform="scale(0.015625)"/>
       <path id="Georgia-20" transform="scale(0.015625)"/>
       <path d="M 4553 2191 
Q 4553 1625 4340 1209 
Q 4128 794 3788 528 
Q 3444 263 3016 131 
Q 2588 0 2131 0 
L 294 0 
L 294 222 
Q 384 222 529 239 
Q 675 256 722 278 
Q 816 319 858 398 
Q 900 478 900 591 
L 900 3791 
Q 900 3897 864 3981 
Q 828 4066 722 4116 
Q 625 4163 512 4184 
Q 400 4206 319 4213 
L 319 4434 
L 2256 4434 
Q 2656 4434 3043 4311 
Q 3431 4188 3719 3978 
Q 4109 3700 4331 3250 
Q 4553 2800 4553 2191 
z
M 3788 2194 
Q 3788 2641 3669 3002 
Q 3550 3363 3322 3631 
Q 3106 3888 2792 4034 
Q 2478 4181 2094 4181 
Q 1966 4181 1805 4176 
Q 1644 4172 1566 4169 
L 1566 759 
Q 1566 475 1731 365 
Q 1897 256 2241 256 
Q 2638 256 2934 397 
Q 3231 538 3416 788 
Q 3609 1050 3698 1395 
Q 3788 1741 3788 2194 
z
" id="Georgia-44" transform="scale(0.015625)"/>
       <path d="M 1650 -81 
Q 981 -81 603 362 
Q 225 806 225 1553 
Q 225 1878 326 2161 
Q 428 2444 622 2675 
Q 806 2897 1084 3033 
Q 1363 3169 1691 3169 
Q 2144 3169 2428 2951 
Q 2713 2734 2713 2359 
Q 2713 2203 2638 2083 
Q 2563 1963 2391 1963 
Q 2206 1963 2104 2056 
Q 2003 2150 2003 2266 
Q 2003 2406 2040 2554 
Q 2078 2703 2084 2772 
Q 2028 2869 1917 2901 
Q 1806 2934 1678 2934 
Q 1528 2934 1392 2870 
Q 1256 2806 1128 2634 
Q 1013 2478 941 2212 
Q 869 1947 869 1578 
Q 869 997 1126 630 
Q 1384 263 1803 263 
Q 2106 263 2311 409 
Q 2516 556 2691 850 
L 2891 719 
Q 2684 350 2346 134 
Q 2009 -81 1650 -81 
z
" id="Georgia-63" transform="scale(0.015625)"/>
       <path d="M 4441 0 
L 2594 0 
L 2594 222 
Q 2838 238 2998 284 
Q 3159 331 3159 400 
Q 3159 428 3153 468 
Q 3147 509 3134 541 
L 2766 1534 
L 1213 1534 
Q 1125 1316 1070 1153 
Q 1016 991 972 853 
Q 931 719 915 634 
Q 900 550 900 497 
Q 900 372 1097 303 
Q 1294 234 1541 222 
L 1541 0 
L -128 0 
L -128 222 
Q -47 228 75 258 
Q 197 288 275 338 
Q 400 422 469 514 
Q 538 606 603 769 
Q 938 1603 1341 2643 
Q 1744 3684 2059 4497 
L 2309 4497 
L 3788 672 
Q 3834 550 3893 475 
Q 3953 400 4059 328 
Q 4131 284 4247 254 
Q 4363 225 4441 222 
L 4441 0 
z
M 2653 1813 
L 1981 3531 
L 1322 1813 
L 2653 1813 
z
" id="Georgia-41" transform="scale(0.015625)"/>
       <path d="M -9 -1006 
Q -9 -850 77 -751 
Q 163 -653 291 -653 
Q 391 -653 462 -690 
Q 534 -728 591 -788 
Q 638 -834 691 -915 
Q 744 -997 775 -1050 
Q 931 -966 1148 -609 
Q 1366 -253 1463 16 
Q 1166 756 925 1340 
Q 684 1925 422 2550 
Q 363 2694 222 2773 
Q 81 2853 -59 2875 
L -59 3081 
L 1347 3081 
L 1347 2863 
Q 1253 2859 1122 2823 
Q 991 2788 991 2741 
Q 991 2722 1005 2678 
Q 1019 2634 1038 2588 
Q 1156 2278 1400 1695 
Q 1644 1113 1778 763 
Q 1919 1097 2070 1455 
Q 2222 1813 2409 2300 
Q 2431 2359 2472 2464 
Q 2513 2569 2513 2644 
Q 2513 2725 2370 2795 
Q 2228 2866 2100 2881 
L 2100 3081 
L 3244 3081 
L 3244 2888 
Q 3150 2872 2997 2780 
Q 2844 2688 2769 2519 
Q 2397 1656 2108 947 
Q 1819 238 1669 -97 
Q 1472 -534 1317 -779 
Q 1163 -1025 1016 -1166 
Q 872 -1297 755 -1342 
Q 638 -1388 513 -1388 
Q 269 -1388 130 -1272 
Q -9 -1156 -9 -1006 
z
" id="Georgia-79" transform="scale(0.015625)"/>
      </defs>
      <use xlink:href="#Georgia-4d"/>
      <use x="92.724609" xlink:href="#Georgia-65"/>
      <use x="141.064453" xlink:href="#Georgia-61"/>
      <use x="191.455078" xlink:href="#Georgia-6e"/>
      <use x="250.537109" xlink:href="#Georgia-20"/>
      <use x="274.658203" xlink:href="#Georgia-44"/>
      <use x="349.560547" xlink:href="#Georgia-65"/>
      <use x="397.900391" xlink:href="#Georgia-63"/>
      <use x="443.310547" xlink:href="#Georgia-72"/>
      <use x="484.277344" xlink:href="#Georgia-65"/>
      <use x="532.617188" xlink:href="#Georgia-61"/>
      <use x="583.007812" xlink:href="#Georgia-73"/>
      <use x="626.220703" xlink:href="#Georgia-65"/>
      <use x="674.560547" xlink:href="#Georgia-20"/>
      <use x="698.681641" xlink:href="#Georgia-41"/>
      <use x="765.771484" xlink:href="#Georgia-63"/>
      <use x="811.181641" xlink:href="#Georgia-63"/>
      <use x="856.591797" xlink:href="#Georgia-75"/>
      <use x="914.111328" xlink:href="#Georgia-72"/>
      <use x="955.078125" xlink:href="#Georgia-61"/>
      <use x="1005.46875" xlink:href="#Georgia-63"/>
      <use x="1050.878906" xlink:href="#Georgia-79"/>
     </g>
    </g>
   </g>
   <g id="patch_3">
    <path clip-path="url(#p900e88b8d8)" d="M 61.404261 333.36 
L 96.913352 333.36 
L 96.913352 133.479134 
L 61.404261 133.479134 
z
" style="fill:#519b64;"/>
   </g>
   <g id="patch_4">
    <path clip-path="url(#p900e88b8d8)" d="M 105.790625 333.36 
L 141.299716 333.36 
L 141.299716 127.550944 
L 105.790625 127.550944 
z
" style="fill:#69aa77;"/>
   </g>
   <g id="patch_5">
    <path clip-path="url(#p900e88b8d8)" d="M 150.176989 333.36 
L 185.68608 333.36 
L 185.68608 150.521508 
L 150.176989 150.521508 
z
" style="fill:#3b5d44;"/>
   </g>
   <g id="patch_6">
    <path clip-path="url(#p900e88b8d8)" d="M 194.563352 333.36 
L 230.072443 333.36 
L 230.072443 145.972839 
L 194.563352 145.972839 
z
" style="fill:#3e734d;"/>
   </g>
   <g id="patch_7">
    <path clip-path="url(#p900e88b8d8)" d="M 238.949716 333.36 
L 274.458807 333.36 
L 274.458807 162.993131 
L 238.949716 162.993131 
z
" style="fill:#37483c;"/>
   </g>
   <g id="patch_8">
    <path clip-path="url(#p900e88b8d8)" d="M 283.33608 333.36 
L 318.84517 333.36 
L 318.84517 62.33672 
L 283.33608 62.33672 
z
" style="fill:#9bc99c;"/>
   </g>
   <g id="patch_9">
    <path clip-path="url(#p900e88b8d8)" d="M 327.722443 333.36 
L 363.231534 333.36 
L 363.231534 105.089209 
L 327.722443 105.089209 
z
" style="fill:#83ba8a;"/>
   </g>
   <g id="patch_10">
    <path clip-path="url(#p900e88b8d8)" d="M 372.108807 333.36 
L 407.617898 333.36 
L 407.617898 134.74499 
L 372.108807 134.74499 
z
" style="fill:#428856;"/>
   </g>
   <g id="line2d_13">
    <path clip-path="url(#p900e88b8d8)" style="fill:none;stroke:#424242;stroke-linecap:square;stroke-width:2.7;"/>
   </g>
   <g id="line2d_14">
    <path clip-path="url(#p900e88b8d8)" style="fill:none;stroke:#424242;stroke-linecap:square;stroke-width:2.7;"/>
   </g>
   <g id="line2d_15">
    <path clip-path="url(#p900e88b8d8)" style="fill:none;stroke:#424242;stroke-linecap:square;stroke-width:2.7;"/>
   </g>
   <g id="line2d_16">
    <path clip-path="url(#p900e88b8d8)" style="fill:none;stroke:#424242;stroke-linecap:square;stroke-width:2.7;"/>
   </g>
   <g id="line2d_17">
    <path clip-path="url(#p900e88b8d8)" style="fill:none;stroke:#424242;stroke-linecap:square;stroke-width:2.7;"/>
   </g>
   <g id="line2d_18">
    <path clip-path="url(#p900e88b8d8)" style="fill:none;stroke:#424242;stroke-linecap:square;stroke-width:2.7;"/>
   </g>
   <g id="line2d_19">
    <path clip-path="url(#p900e88b8d8)" style="fill:none;stroke:#424242;stroke-linecap:square;stroke-width:2.7;"/>
   </g>
   <g id="line2d_20">
    <path clip-path="url(#p900e88b8d8)" style="fill:none;stroke:#424242;stroke-linecap:square;stroke-width:2.7;"/>
   </g>
   <g id="patch_11">
    <path d="M 56.965625 333.36 
L 56.965625 7.2 
" style="fill:none;stroke:#000000;stroke-linecap:square;stroke-linejoin:miter;stroke-width:0.8;"/>
   </g>
   <g id="patch_12">
    <path d="M 412.056534 333.36 
L 412.056534 7.2 
" style="fill:none;stroke:#000000;stroke-linecap:square;stroke-linejoin:miter;stroke-width:0.8;"/>
   </g>
   <g id="patch_13">
    <path d="M 56.965625 333.36 
L 412.056534 333.36 
" style="fill:none;stroke:#000000;stroke-linecap:square;stroke-linejoin:miter;stroke-width:0.8;"/>
   </g>
   <g id="patch_14">
    <path d="M 56.965625 7.2 
L 412.056534 7.2 
" style="fill:none;stroke:#000000;stroke-linecap:square;stroke-linejoin:miter;stroke-width:0.8;"/>
   </g>
   <g id="text_9">
    <!-- SOC -->
    <g transform="translate(65.527401 127.965462)scale(0.14 -0.14)">
     <defs>
      <path d="M 3066 2034 
Q 3206 1878 3273 1692 
Q 3341 1506 3341 1259 
Q 3341 672 2906 290 
Q 2472 -91 1828 -91 
Q 1531 -91 1234 1 
Q 938 94 722 225 
L 588 -3 
L 338 -3 
L 294 1516 
L 547 1516 
Q 625 1234 729 1007 
Q 834 781 1006 584 
Q 1169 400 1386 290 
Q 1603 181 1891 181 
Q 2106 181 2267 237 
Q 2428 294 2528 397 
Q 2628 500 2676 639 
Q 2725 778 2725 959 
Q 2725 1225 2575 1454 
Q 2425 1684 2128 1803 
Q 1925 1884 1662 1982 
Q 1400 2081 1209 2169 
Q 834 2338 626 2611 
Q 419 2884 419 3325 
Q 419 3578 522 3797 
Q 625 4016 816 4188 
Q 997 4350 1244 4442 
Q 1491 4534 1759 4534 
Q 2066 4534 2308 4440 
Q 2550 4347 2750 4222 
L 2878 4434 
L 3128 4434 
L 3153 2963 
L 2900 2963 
Q 2831 3216 2745 3447 
Q 2659 3678 2522 3866 
Q 2388 4047 2194 4155 
Q 2000 4263 1719 4263 
Q 1422 4263 1212 4072 
Q 1003 3881 1003 3606 
Q 1003 3319 1137 3130 
Q 1272 2941 1528 2819 
Q 1756 2709 1976 2629 
Q 2197 2550 2403 2459 
Q 2591 2378 2764 2275 
Q 2938 2172 3066 2034 
z
" id="Georgia-53" transform="scale(0.015625)"/>
      <path d="M 3888 3909 
Q 4181 3603 4347 3170 
Q 4513 2738 4513 2213 
Q 4513 1684 4344 1253 
Q 4175 822 3875 519 
Q 3584 219 3200 56 
Q 2816 -106 2381 -106 
Q 1919 -106 1526 67 
Q 1134 241 853 550 
Q 572 853 411 1286 
Q 250 1719 250 2213 
Q 250 2753 419 3176 
Q 588 3600 884 3909 
Q 1178 4216 1567 4378 
Q 1956 4541 2381 4541 
Q 2822 4541 3212 4375 
Q 3603 4209 3888 3909 
z
M 3422 766 
Q 3597 1050 3676 1409 
Q 3756 1769 3756 2213 
Q 3756 2669 3667 3050 
Q 3578 3431 3406 3700 
Q 3234 3966 2975 4114 
Q 2716 4263 2381 4263 
Q 2006 4263 1743 4091 
Q 1481 3919 1316 3631 
Q 1159 3356 1082 2987 
Q 1006 2619 1006 2213 
Q 1006 1763 1087 1400 
Q 1169 1038 1344 756 
Q 1513 481 1769 326 
Q 2025 172 2381 172 
Q 2716 172 2984 328 
Q 3253 484 3422 766 
z
" id="Georgia-4f" transform="scale(0.015625)"/>
      <path d="M 2259 -103 
Q 1863 -103 1498 53 
Q 1134 209 853 503 
Q 575 797 409 1220 
Q 244 1644 244 2175 
Q 244 2706 406 3139 
Q 569 3572 856 3884 
Q 1141 4194 1528 4362 
Q 1916 4531 2356 4531 
Q 2684 4531 2950 4450 
Q 3216 4369 3456 4222 
L 3584 4434 
L 3834 4434 
L 3863 2853 
L 3606 2853 
Q 3556 3084 3456 3354 
Q 3356 3625 3222 3813 
Q 3072 4025 2865 4145 
Q 2659 4266 2394 4266 
Q 2091 4266 1830 4131 
Q 1569 3997 1378 3734 
Q 1197 3481 1094 3090 
Q 991 2700 991 2219 
Q 991 1794 1098 1439 
Q 1206 1084 1406 816 
Q 1606 550 1879 400 
Q 2153 250 2491 250 
Q 2744 250 2956 329 
Q 3169 409 3325 541 
Q 3481 678 3600 853 
Q 3719 1028 3794 1234 
L 4028 1122 
Q 3759 463 3315 180 
Q 2872 -103 2259 -103 
z
" id="Georgia-43" transform="scale(0.015625)"/>
     </defs>
     <use xlink:href="#Georgia-53"/>
     <use x="56.103516" xlink:href="#Georgia-4f"/>
     <use x="130.517578" xlink:href="#Georgia-43"/>
    </g>
   </g>
   <g id="text_10">
    <!-- CEC -->
    <g transform="translate(109.983764 122.037272)scale(0.14 -0.14)">
     <defs>
      <path d="M 4034 1306 
L 3950 0 
L 269 0 
L 269 222 
Q 363 228 519 248 
Q 675 269 722 291 
Q 822 338 861 413 
Q 900 488 900 603 
L 900 3791 
Q 900 3894 865 3973 
Q 831 4053 722 4103 
Q 638 4144 495 4175 
Q 353 4206 269 4213 
L 269 4434 
L 3700 4434 
L 3700 3366 
L 3466 3366 
Q 3403 3603 3195 3870 
Q 2988 4138 2800 4163 
Q 2703 4175 2568 4181 
Q 2434 4188 2263 4188 
L 1566 4188 
L 1566 2425 
L 2066 2425 
Q 2306 2425 2417 2470 
Q 2528 2516 2613 2622 
Q 2681 2713 2729 2864 
Q 2778 3016 2794 3150 
L 3028 3150 
L 3028 1416 
L 2794 1416 
Q 2781 1566 2726 1733 
Q 2672 1900 2613 1975 
Q 2516 2097 2392 2134 
Q 2269 2172 2066 2172 
L 1566 2172 
L 1566 841 
Q 1566 641 1594 525 
Q 1622 409 1703 350 
Q 1784 291 1925 273 
Q 2066 256 2325 256 
Q 2428 256 2597 256 
Q 2766 256 2881 269 
Q 3000 281 3126 314 
Q 3253 347 3306 403 
Q 3450 553 3608 858 
Q 3766 1163 3809 1306 
L 4034 1306 
z
" id="Georgia-45" transform="scale(0.015625)"/>
     </defs>
     <use xlink:href="#Georgia-43"/>
     <use x="64.208984" xlink:href="#Georgia-45"/>
     <use x="129.541016" xlink:href="#Georgia-43"/>
    </g>
   </g>
   <g id="text_11">
    <!-- BIO1 -->
    <g transform="translate(152.410128 145.007836)scale(0.14 -0.14)">
     <defs>
      <path d="M 3450 2066 
Q 3644 1934 3772 1721 
Q 3900 1509 3900 1206 
Q 3900 897 3765 669 
Q 3631 441 3416 294 
Q 3206 150 2942 75 
Q 2678 0 2397 0 
L 297 0 
L 297 222 
Q 372 228 515 248 
Q 659 269 722 297 
Q 819 341 859 414 
Q 900 488 900 603 
L 900 3791 
Q 900 3897 864 3978 
Q 828 4059 722 4109 
Q 628 4156 512 4181 
Q 397 4206 319 4213 
L 319 4434 
L 2366 4434 
Q 2603 4434 2820 4387 
Q 3038 4341 3234 4222 
Q 3419 4113 3537 3925 
Q 3656 3738 3656 3469 
Q 3656 3234 3572 3051 
Q 3488 2869 3334 2738 
Q 3191 2613 3005 2527 
Q 2819 2441 2603 2394 
L 2603 2366 
Q 2794 2344 3030 2270 
Q 3266 2197 3450 2066 
z
M 2697 2734 
Q 2813 2869 2858 3028 
Q 2903 3188 2903 3406 
Q 2903 3772 2703 3980 
Q 2503 4188 2072 4188 
Q 1972 4188 1820 4183 
Q 1669 4178 1566 4175 
L 1566 2472 
L 1963 2472 
Q 2219 2472 2401 2537 
Q 2584 2603 2697 2734 
z
M 3128 1319 
Q 3128 1713 2864 1966 
Q 2600 2219 2109 2219 
Q 1909 2219 1771 2214 
Q 1634 2209 1566 2206 
L 1566 644 
Q 1566 447 1725 347 
Q 1884 247 2169 247 
Q 2634 247 2881 519 
Q 3128 791 3128 1319 
z
" id="Georgia-42" transform="scale(0.015625)"/>
      <path d="M 2244 0 
L 247 0 
L 247 222 
Q 331 228 490 240 
Q 650 253 716 278 
Q 819 319 866 389 
Q 913 459 913 584 
L 913 3797 
Q 913 3906 878 3979 
Q 844 4053 716 4103 
Q 622 4141 480 4173 
Q 338 4206 247 4213 
L 247 4434 
L 2244 4434 
L 2244 4213 
Q 2147 4209 2012 4189 
Q 1878 4169 1778 4138 
Q 1659 4100 1618 4015 
Q 1578 3931 1578 3828 
L 1578 619 
Q 1578 516 1623 436 
Q 1669 356 1778 309 
Q 1844 284 1992 254 
Q 2141 225 2244 222 
L 2244 0 
z
" id="Georgia-49" transform="scale(0.015625)"/>
     </defs>
     <use xlink:href="#Georgia-42"/>
     <use x="65.380859" xlink:href="#Georgia-49"/>
     <use x="104.345703" xlink:href="#Georgia-4f"/>
     <use x="178.759766" xlink:href="#Georgia-31"/>
    </g>
   </g>
   <g id="text_12">
    <!-- BIO8 -->
    <g transform="translate(195.630554 140.459167)scale(0.14 -0.14)">
     <use xlink:href="#Georgia-42"/>
     <use x="65.380859" xlink:href="#Georgia-49"/>
     <use x="104.345703" xlink:href="#Georgia-4f"/>
     <use x="178.759766" xlink:href="#Georgia-38"/>
    </g>
   </g>
   <g id="text_13">
    <!-- BIO10 -->
    <g transform="translate(236.886605 157.479459)scale(0.14 -0.14)">
     <use xlink:href="#Georgia-42"/>
     <use x="65.380859" xlink:href="#Georgia-49"/>
     <use x="104.345703" xlink:href="#Georgia-4f"/>
     <use x="178.759766" xlink:href="#Georgia-31"/>
     <use x="221.728516" xlink:href="#Georgia-30"/>
    </g>
   </g>
   <g id="text_14">
    <!-- BIO13 -->
    <g transform="translate(281.707187 56.823048)scale(0.14 -0.14)">
     <defs>
      <path d="M 1522 -1141 
Q 1228 -1141 984 -1067 
Q 741 -994 566 -869 
Q 391 -744 295 -581 
Q 200 -419 200 -247 
Q 200 -94 275 29 
Q 350 153 516 153 
Q 703 153 801 61 
Q 900 -31 900 -150 
Q 900 -250 867 -403 
Q 834 -556 816 -622 
Q 838 -650 895 -697 
Q 953 -744 1038 -781 
Q 1138 -828 1247 -856 
Q 1356 -884 1556 -884 
Q 1744 -884 1917 -821 
Q 2091 -759 2222 -622 
Q 2359 -478 2436 -286 
Q 2513 -94 2513 219 
Q 2513 388 2477 553 
Q 2441 719 2344 841 
Q 2247 963 2080 1030 
Q 1913 1097 1656 1097 
L 1247 1097 
L 1247 1456 
L 1519 1456 
Q 1950 1456 2140 1693 
Q 2331 1931 2331 2409 
Q 2331 2800 2147 2998 
Q 1963 3197 1625 3197 
Q 1463 3197 1358 3158 
Q 1253 3119 1188 3081 
Q 1109 3038 1059 2984 
Q 1009 2931 984 2906 
Q 1006 2806 1037 2661 
Q 1069 2516 1069 2384 
Q 1069 2269 970 2176 
Q 872 2084 681 2084 
Q 516 2084 439 2203 
Q 363 2322 363 2478 
Q 363 2641 453 2809 
Q 544 2978 722 3125 
Q 900 3272 1156 3362 
Q 1413 3453 1747 3453 
Q 2131 3453 2382 3339 
Q 2634 3225 2778 3063 
Q 2919 2903 2972 2728 
Q 3025 2553 3025 2428 
Q 3025 2272 2981 2114 
Q 2938 1956 2838 1822 
Q 2728 1675 2548 1554 
Q 2369 1434 2097 1359 
L 2097 1309 
Q 2272 1294 2470 1231 
Q 2669 1169 2828 1047 
Q 2994 919 3100 717 
Q 3206 516 3206 206 
Q 3206 -394 2725 -767 
Q 2244 -1141 1522 -1141 
z
" id="Georgia-33" transform="scale(0.015625)"/>
     </defs>
     <use xlink:href="#Georgia-42"/>
     <use x="65.380859" xlink:href="#Georgia-49"/>
     <use x="104.345703" xlink:href="#Georgia-4f"/>
     <use x="178.759766" xlink:href="#Georgia-31"/>
     <use x="221.728516" xlink:href="#Georgia-33"/>
    </g>
   </g>
   <g id="text_15">
    <!-- BIO15 -->
    <g transform="translate(326.257614 99.575537)scale(0.14 -0.14)">
     <defs>
      <path d="M 2634 1466 
Q 2841 1303 2977 1047 
Q 3113 791 3113 406 
Q 3113 -266 2653 -703 
Q 2194 -1141 1488 -1141 
Q 941 -1141 562 -881 
Q 184 -622 184 -278 
Q 184 -119 262 0 
Q 341 119 503 119 
Q 691 119 789 20 
Q 888 -78 888 -194 
Q 888 -294 853 -444 
Q 819 -594 800 -666 
Q 825 -688 881 -725 
Q 938 -763 1016 -797 
Q 1097 -831 1214 -857 
Q 1331 -884 1488 -884 
Q 1688 -884 1866 -803 
Q 2044 -722 2166 -563 
Q 2300 -388 2367 -164 
Q 2434 59 2434 403 
Q 2434 844 2189 1133 
Q 1944 1422 1544 1422 
Q 1294 1422 1076 1328 
Q 859 1234 688 1016 
L 478 1097 
L 744 3353 
L 2981 3353 
L 2981 2797 
L 997 2797 
L 834 1472 
Q 975 1572 1204 1670 
Q 1434 1769 1709 1769 
Q 1938 1769 2183 1698 
Q 2428 1628 2634 1466 
z
" id="Georgia-35" transform="scale(0.015625)"/>
     </defs>
     <use xlink:href="#Georgia-42"/>
     <use x="65.380859" xlink:href="#Georgia-49"/>
     <use x="104.345703" xlink:href="#Georgia-4f"/>
     <use x="178.759766" xlink:href="#Georgia-31"/>
     <use x="221.728516" xlink:href="#Georgia-35"/>
    </g>
   </g>
   <g id="text_16">
    <!-- BIO19 -->
    <g transform="translate(370.380384 129.231318)scale(0.14 -0.14)">
     <defs>
      <path d="M 3300 1613 
Q 3300 1069 3128 589 
Q 2956 109 2634 -253 
Q 2319 -609 1864 -845 
Q 1409 -1081 847 -1156 
L 791 -875 
L 1072 -825 
Q 1744 -613 2122 -172 
Q 2500 269 2609 947 
Q 2353 728 2098 626 
Q 1844 525 1525 525 
Q 1016 525 639 922 
Q 263 1319 263 1922 
Q 263 2569 698 3012 
Q 1134 3456 1775 3456 
Q 2472 3456 2886 2959 
Q 3300 2463 3300 1613 
z
M 2638 1650 
Q 2638 2381 2398 2795 
Q 2159 3209 1769 3209 
Q 1397 3209 1169 2889 
Q 941 2569 941 2006 
Q 941 1500 1173 1194 
Q 1406 888 1797 888 
Q 2041 888 2244 977 
Q 2447 1066 2622 1263 
Q 2622 1275 2626 1312 
Q 2631 1350 2631 1419 
Q 2631 1463 2634 1525 
Q 2638 1588 2638 1650 
z
" id="Georgia-39" transform="scale(0.015625)"/>
     </defs>
     <use xlink:href="#Georgia-42"/>
     <use x="65.380859" xlink:href="#Georgia-49"/>
     <use x="104.345703" xlink:href="#Georgia-4f"/>
     <use x="178.759766" xlink:href="#Georgia-31"/>
     <use x="221.728516" xlink:href="#Georgia-39"/>
    </g>
   </g>
  </g>
  <g id="axes_2">
   <g id="patch_15">
    <path d="M 483.074716 333.36 
L 838.165625 333.36 
L 838.165625 7.2 
L 483.074716 7.2 
z
" style="fill:#ffffff;"/>
   </g>
   <g id="matplotlib.axis_3">
    <g id="text_17">
     <!-- Features -->
     <g transform="translate(629.96392 349.455)scale(0.16 -0.16)">
      <use xlink:href="#Georgia-46"/>
      <use x="59.912109" xlink:href="#Georgia-65"/>
      <use x="108.251953" xlink:href="#Georgia-61"/>
      <use x="158.642578" xlink:href="#Georgia-74"/>
      <use x="193.164062" xlink:href="#Georgia-75"/>
      <use x="250.683594" xlink:href="#Georgia-72"/>
      <use x="291.650391" xlink:href="#Georgia-65"/>
      <use x="339.990234" xlink:href="#Georgia-73"/>
     </g>
    </g>
   </g>
   <g id="matplotlib.axis_4">
    <g id="ytick_7">
     <g id="line2d_21">
      <path clip-path="url(#pf905b17d4f)" d="M 483.074716 333.36 
L 838.165625 333.36 
" style="fill:none;stroke:#b0b0b0;stroke-linecap:square;stroke-width:0.8;"/>
     </g>
     <g id="line2d_22">
      <g>
       <use style="stroke:#000000;stroke-width:0.8;" x="483.074716" xlink:href="#mdf96f0fe19" y="333.36"/>
      </g>
     </g>
     <g id="text_18">
      <!-- 0 -->
      <g transform="translate(467.482216 338.651563)scale(0.14 -0.14)">
       <use xlink:href="#Georgia-30"/>
      </g>
     </g>
    </g>
    <g id="ytick_8">
     <g id="line2d_23">
      <path clip-path="url(#pf905b17d4f)" d="M 483.074716 275.98276 
L 838.165625 275.98276 
" style="fill:none;stroke:#b0b0b0;stroke-linecap:square;stroke-width:0.8;"/>
     </g>
     <g id="line2d_24">
      <g>
       <use style="stroke:#000000;stroke-width:0.8;" x="483.074716" xlink:href="#mdf96f0fe19" y="275.98276"/>
      </g>
     </g>
     <g id="text_19">
      <!-- 50 -->
      <g transform="translate(460.086278 281.274323)scale(0.14 -0.14)">
       <use xlink:href="#Georgia-35"/>
       <use x="52.832031" xlink:href="#Georgia-30"/>
      </g>
     </g>
    </g>
    <g id="ytick_9">
     <g id="line2d_25">
      <path clip-path="url(#pf905b17d4f)" d="M 483.074716 218.605521 
L 838.165625 218.605521 
" style="fill:none;stroke:#b0b0b0;stroke-linecap:square;stroke-width:0.8;"/>
     </g>
     <g id="line2d_26">
      <g>
       <use style="stroke:#000000;stroke-width:0.8;" x="483.074716" xlink:href="#mdf96f0fe19" y="218.605521"/>
      </g>
     </g>
     <g id="text_20">
      <!-- 100 -->
      <g transform="translate(452.874091 223.897083)scale(0.14 -0.14)">
       <use xlink:href="#Georgia-31"/>
       <use x="42.96875" xlink:href="#Georgia-30"/>
       <use x="104.345703" xlink:href="#Georgia-30"/>
      </g>
     </g>
    </g>
    <g id="ytick_10">
     <g id="line2d_27">
      <path clip-path="url(#pf905b17d4f)" d="M 483.074716 161.228281 
L 838.165625 161.228281 
" style="fill:none;stroke:#b0b0b0;stroke-linecap:square;stroke-width:0.8;"/>
     </g>
     <g id="line2d_28">
      <g>
       <use style="stroke:#000000;stroke-width:0.8;" x="483.074716" xlink:href="#mdf96f0fe19" y="161.228281"/>
      </g>
     </g>
     <g id="text_21">
      <!-- 150 -->
      <g transform="translate(454.070653 166.519844)scale(0.14 -0.14)">
       <use xlink:href="#Georgia-31"/>
       <use x="42.96875" xlink:href="#Georgia-35"/>
       <use x="95.800781" xlink:href="#Georgia-30"/>
      </g>
     </g>
    </g>
    <g id="ytick_11">
     <g id="line2d_29">
      <path clip-path="url(#pf905b17d4f)" d="M 483.074716 103.851042 
L 838.165625 103.851042 
" style="fill:none;stroke:#b0b0b0;stroke-linecap:square;stroke-width:0.8;"/>
     </g>
     <g id="line2d_30">
      <g>
       <use style="stroke:#000000;stroke-width:0.8;" x="483.074716" xlink:href="#mdf96f0fe19" y="103.851042"/>
      </g>
     </g>
     <g id="text_22">
      <!-- 200 -->
      <g transform="translate(451.069403 109.142604)scale(0.14 -0.14)">
       <use xlink:href="#Georgia-32"/>
       <use x="55.859375" xlink:href="#Georgia-30"/>
       <use x="117.236328" xlink:href="#Georgia-30"/>
      </g>
     </g>
    </g>
    <g id="ytick_12">
     <g id="line2d_31">
      <path clip-path="url(#pf905b17d4f)" d="M 483.074716 46.473802 
L 838.165625 46.473802 
" style="fill:none;stroke:#b0b0b0;stroke-linecap:square;stroke-width:0.8;"/>
     </g>
     <g id="line2d_32">
      <g>
       <use style="stroke:#000000;stroke-width:0.8;" x="483.074716" xlink:href="#mdf96f0fe19" y="46.473802"/>
      </g>
     </g>
     <g id="text_23">
      <!-- 250 -->
      <g transform="translate(452.265966 51.765365)scale(0.14 -0.14)">
       <use xlink:href="#Georgia-32"/>
       <use x="55.859375" xlink:href="#Georgia-35"/>
       <use x="108.691406" xlink:href="#Georgia-30"/>
      </g>
     </g>
    </g>
    <g id="text_24">
     <!-- Mean Decrease Gini -->
     <g transform="translate(443.599403 241.39125)rotate(-90)scale(0.16 -0.16)">
      <defs>
       <path d="M 4597 1772 
Q 4522 1763 4395 1742 
Q 4269 1722 4191 1684 
Q 4097 1638 4058 1552 
Q 4019 1466 4019 1350 
L 4019 1006 
Q 4019 631 4023 500 
Q 4028 369 4034 284 
Q 3619 97 3206 -3 
Q 2794 -103 2397 -103 
Q 1972 -103 1578 56 
Q 1184 216 891 509 
Q 594 806 419 1231 
Q 244 1656 244 2181 
Q 244 2688 411 3120 
Q 578 3553 884 3872 
Q 1181 4184 1592 4357 
Q 2003 4531 2472 4531 
Q 2847 4531 3125 4440 
Q 3403 4350 3616 4222 
L 3744 4434 
L 3994 4434 
L 4022 2884 
L 3766 2884 
Q 3700 3141 3603 3389 
Q 3506 3638 3353 3834 
Q 3200 4031 2979 4148 
Q 2759 4266 2453 4266 
Q 2119 4266 1856 4130 
Q 1594 3994 1400 3725 
Q 1209 3466 1106 3078 
Q 1003 2691 1003 2213 
Q 1003 1791 1104 1417 
Q 1206 1044 1400 772 
Q 1594 494 1884 334 
Q 2175 175 2544 175 
Q 2819 175 3045 259 
Q 3272 344 3366 438 
Q 3391 600 3392 765 
Q 3394 931 3394 1047 
L 3394 1291 
Q 3394 1422 3358 1523 
Q 3322 1625 3209 1672 
Q 3106 1719 2929 1742 
Q 2753 1766 2653 1772 
L 2653 2000 
L 4597 2000 
L 4597 1772 
z
" id="Georgia-47" transform="scale(0.015625)"/>
       <path d="M 1722 0 
L 231 0 
L 231 206 
Q 303 213 379 219 
Q 456 225 513 244 
Q 600 272 642 342 
Q 684 413 684 525 
L 684 2428 
Q 684 2528 639 2611 
Q 594 2694 513 2750 
Q 453 2788 340 2814 
Q 228 2841 134 2847 
L 134 3050 
L 1222 3119 
L 1266 3075 
L 1266 563 
Q 1266 453 1308 381 
Q 1350 309 1441 275 
Q 1509 247 1575 230 
Q 1641 213 1722 206 
L 1722 0 
z
M 1328 4334 
Q 1328 4156 1211 4023 
Q 1094 3891 922 3891 
Q 763 3891 645 4017 
Q 528 4144 528 4306 
Q 528 4478 645 4606 
Q 763 4734 922 4734 
Q 1100 4734 1214 4614 
Q 1328 4494 1328 4334 
z
" id="Georgia-69" transform="scale(0.015625)"/>
      </defs>
      <use xlink:href="#Georgia-4d"/>
      <use x="92.724609" xlink:href="#Georgia-65"/>
      <use x="141.064453" xlink:href="#Georgia-61"/>
      <use x="191.455078" xlink:href="#Georgia-6e"/>
      <use x="250.537109" xlink:href="#Georgia-20"/>
      <use x="274.658203" xlink:href="#Georgia-44"/>
      <use x="349.560547" xlink:href="#Georgia-65"/>
      <use x="397.900391" xlink:href="#Georgia-63"/>
      <use x="443.310547" xlink:href="#Georgia-72"/>
      <use x="484.277344" xlink:href="#Georgia-65"/>
      <use x="532.617188" xlink:href="#Georgia-61"/>
      <use x="583.007812" xlink:href="#Georgia-73"/>
      <use x="626.220703" xlink:href="#Georgia-65"/>
      <use x="674.560547" xlink:href="#Georgia-20"/>
      <use x="698.681641" xlink:href="#Georgia-47"/>
      <use x="771.191406" xlink:href="#Georgia-69"/>
      <use x="800.488281" xlink:href="#Georgia-6e"/>
      <use x="859.570312" xlink:href="#Georgia-69"/>
     </g>
    </g>
   </g>
   <g id="patch_16">
    <path clip-path="url(#pf905b17d4f)" d="M 487.513352 333.36 
L 523.022443 333.36 
L 523.022443 154.537981 
L 487.513352 154.537981 
z
" style="fill:#416986;"/>
   </g>
   <g id="patch_17">
    <path clip-path="url(#pf905b17d4f)" d="M 531.899716 333.36 
L 567.408807 333.36 
L 567.408807 180.408804 
L 531.899716 180.408804 
z
" style="fill:#38454e;"/>
   </g>
   <g id="patch_18">
    <path clip-path="url(#pf905b17d4f)" d="M 576.28608 333.36 
L 611.79517 333.36 
L 611.79517 77.188872 
L 576.28608 77.188872 
z
" style="fill:#84aeca;"/>
   </g>
   <g id="patch_19">
    <path clip-path="url(#pf905b17d4f)" d="M 620.672443 333.36 
L 656.181534 333.36 
L 656.181534 30.150896 
L 620.672443 30.150896 
z
" style="fill:#9bbed4;"/>
   </g>
   <g id="patch_20">
    <path clip-path="url(#pf905b17d4f)" d="M 665.058807 333.36 
L 700.567898 333.36 
L 700.567898 85.515801 
L 665.058807 85.515801 
z
" style="fill:#548db5;"/>
   </g>
   <g id="patch_21">
    <path clip-path="url(#pf905b17d4f)" d="M 709.44517 333.36 
L 744.954261 333.36 
L 744.954261 80.106848 
L 709.44517 80.106848 
z
" style="fill:#6c9dbf;"/>
   </g>
   <g id="patch_22">
    <path clip-path="url(#pf905b17d4f)" d="M 753.831534 333.36 
L 789.340625 333.36 
L 789.340625 146.885234 
L 753.831534 146.885234 
z
" style="fill:#467ba1;"/>
   </g>
   <g id="patch_23">
    <path clip-path="url(#pf905b17d4f)" d="M 798.217898 333.36 
L 833.726989 333.36 
L 833.726989 154.87031 
L 798.217898 154.87031 
z
" style="fill:#3c576a;"/>
   </g>
   <g id="line2d_33">
    <path clip-path="url(#pf905b17d4f)" style="fill:none;stroke:#424242;stroke-linecap:square;stroke-width:2.7;"/>
   </g>
   <g id="line2d_34">
    <path clip-path="url(#pf905b17d4f)" style="fill:none;stroke:#424242;stroke-linecap:square;stroke-width:2.7;"/>
   </g>
   <g id="line2d_35">
    <path clip-path="url(#pf905b17d4f)" style="fill:none;stroke:#424242;stroke-linecap:square;stroke-width:2.7;"/>
   </g>
   <g id="line2d_36">
    <path clip-path="url(#pf905b17d4f)" style="fill:none;stroke:#424242;stroke-linecap:square;stroke-width:2.7;"/>
   </g>
   <g id="line2d_37">
    <path clip-path="url(#pf905b17d4f)" style="fill:none;stroke:#424242;stroke-linecap:square;stroke-width:2.7;"/>
   </g>
   <g id="line2d_38">
    <path clip-path="url(#pf905b17d4f)" style="fill:none;stroke:#424242;stroke-linecap:square;stroke-width:2.7;"/>
   </g>
   <g id="line2d_39">
    <path clip-path="url(#pf905b17d4f)" style="fill:none;stroke:#424242;stroke-linecap:square;stroke-width:2.7;"/>
   </g>
   <g id="line2d_40">
    <path clip-path="url(#pf905b17d4f)" style="fill:none;stroke:#424242;stroke-linecap:square;stroke-width:2.7;"/>
   </g>
   <g id="patch_24">
    <path d="M 483.074716 333.36 
L 483.074716 7.2 
" style="fill:none;stroke:#000000;stroke-linecap:square;stroke-linejoin:miter;stroke-width:0.8;"/>
   </g>
   <g id="patch_25">
    <path d="M 838.165625 333.36 
L 838.165625 7.2 
" style="fill:none;stroke:#000000;stroke-linecap:square;stroke-linejoin:miter;stroke-width:0.8;"/>
   </g>
   <g id="patch_26">
    <path d="M 483.074716 333.36 
L 838.165625 333.36 
" style="fill:none;stroke:#000000;stroke-linecap:square;stroke-linejoin:miter;stroke-width:0.8;"/>
   </g>
   <g id="patch_27">
    <path d="M 483.074716 7.2 
L 838.165625 7.2 
" style="fill:none;stroke:#000000;stroke-linecap:square;stroke-linejoin:miter;stroke-width:0.8;"/>
   </g>
   <g id="text_25">
    <!-- SOC -->
    <g transform="translate(491.636491 148.800257)scale(0.14 -0.14)">
     <use xlink:href="#Georgia-53"/>
     <use x="56.103516" xlink:href="#Georgia-4f"/>
     <use x="130.517578" xlink:href="#Georgia-43"/>
    </g>
   </g>
   <g id="text_26">
    <!-- CEC -->
    <g transform="translate(536.092855 174.67108)scale(0.14 -0.14)">
     <use xlink:href="#Georgia-43"/>
     <use x="64.208984" xlink:href="#Georgia-45"/>
     <use x="129.541016" xlink:href="#Georgia-43"/>
    </g>
   </g>
   <g id="text_27">
    <!-- BIO1 -->
    <g transform="translate(578.519219 71.451148)scale(0.14 -0.14)">
     <use xlink:href="#Georgia-42"/>
     <use x="65.380859" xlink:href="#Georgia-49"/>
     <use x="104.345703" xlink:href="#Georgia-4f"/>
     <use x="178.759766" xlink:href="#Georgia-31"/>
    </g>
   </g>
   <g id="text_28">
    <!-- BIO8 -->
    <g transform="translate(621.739645 24.413172)scale(0.14 -0.14)">
     <use xlink:href="#Georgia-42"/>
     <use x="65.380859" xlink:href="#Georgia-49"/>
     <use x="104.345703" xlink:href="#Georgia-4f"/>
     <use x="178.759766" xlink:href="#Georgia-38"/>
    </g>
   </g>
   <g id="text_29">
    <!-- BIO10 -->
    <g transform="translate(662.995696 79.778077)scale(0.14 -0.14)">
     <use xlink:href="#Georgia-42"/>
     <use x="65.380859" xlink:href="#Georgia-49"/>
     <use x="104.345703" xlink:href="#Georgia-4f"/>
     <use x="178.759766" xlink:href="#Georgia-31"/>
     <use x="221.728516" xlink:href="#Georgia-30"/>
    </g>
   </g>
   <g id="text_30">
    <!-- BIO13 -->
    <g transform="translate(707.816278 74.369124)scale(0.14 -0.14)">
     <use xlink:href="#Georgia-42"/>
     <use x="65.380859" xlink:href="#Georgia-49"/>
     <use x="104.345703" xlink:href="#Georgia-4f"/>
     <use x="178.759766" xlink:href="#Georgia-31"/>
     <use x="221.728516" xlink:href="#Georgia-33"/>
    </g>
   </g>
   <g id="text_31">
    <!-- BIO15 -->
    <g transform="translate(752.366705 141.14751)scale(0.14 -0.14)">
     <use xlink:href="#Georgia-42"/>
     <use x="65.380859" xlink:href="#Georgia-49"/>
     <use x="104.345703" xlink:href="#Georgia-4f"/>
     <use x="178.759766" xlink:href="#Georgia-31"/>
     <use x="221.728516" xlink:href="#Georgia-35"/>
    </g>
   </g>
   <g id="text_32">
    <!-- BIO19 -->
    <g transform="translate(796.489474 149.132586)scale(0.14 -0.14)">
     <use xlink:href="#Georgia-42"/>
     <use x="65.380859" xlink:href="#Georgia-49"/>
     <use x="104.345703" xlink:href="#Georgia-4f"/>
     <use x="178.759766" xlink:href="#Georgia-31"/>
     <use x="221.728516" xlink:href="#Georgia-39"/>
    </g>
   </g>
  </g>
 </g>
 <defs>
  <clipPath id="p900e88b8d8">
   <rect height="326.16" width="355.090909" x="56.965625" y="7.2"/>
  </clipPath>
  <clipPath id="pf905b17d4f">
   <rect height="326.16" width="355.090909" x="483.074716" y="7.2"/>
  </clipPath>
 </defs>
</svg>
