<?xml version="1.0" encoding="utf-8" standalone="no"?>
<!DOCTYPE svg PUBLIC "-//W3C//DTD SVG 1.1//EN"
  "http://www.w3.org/Graphics/SVG/1.1/DTD/svg11.dtd">
<svg height="432pt" version="1.1" viewBox="0 0 432 432" width="432pt" xmlns="http://www.w3.org/2000/svg" xmlns:xlink="http://www.w3.org/1999/xlink">
 <metadata>
  <rdf:RDF xmlns:cc="http://creativecommons.org/ns#" xmlns:dc="http://purl.org/dc/elements/1.1/" xmlns:rdf="http://www.w3.org/1999/02/22-rdf-syntax-ns#">
   <cc:Work>
    <dc:type rdf:resource="http://purl.org/dc/dcmitype/StillImage"/>
    <dc:date>2021-11-09T18:07:09.472245</dc:date>
    <dc:format>image/svg+xml</dc:format>
    <dc:creator>
     <cc:Agent>
      <dc:title>Matplotlib v3.4.3, https://matplotlib.org/</dc:title>
     </cc:Agent>
    </dc:creator>
   </cc:Work>
  </rdf:RDF>
 </metadata>
 <defs>
  <style type="text/css">*{stroke-linecap:butt;stroke-linejoin:round;}</style>
 </defs>
 <g id="figure_1">
  <g id="patch_1">
   <path d="M 0 432 
L 432 432 
L 432 0 
L 0 0 
z
" style="fill:none;"/>
  </g>
  <g id="axes_1">
   <g id="patch_2">
    <path d="M 54 378 
L 388.8 378 
L 388.8 51.84 
L 54 51.84 
z
" style="fill:#ffffff;"/>
   </g>
   <g id="matplotlib.axis_1">
    <g id="xtick_1">
     <g id="line2d_1">
      <path clip-path="url(#pa0a50fe18a)" d="M 54 378 
L 54 51.84 
" style="fill:none;stroke:#b0b0b0;stroke-linecap:square;stroke-width:0.8;"/>
     </g>
     <g id="line2d_2">
      <defs>
       <path d="M 0 0 
L 0 3.5 
" id="mf99d3fe7f6" style="stroke:#000000;stroke-width:0.8;"/>
      </defs>
      <g>
       <use style="stroke:#000000;stroke-width:0.8;" x="54" xlink:href="#mf99d3fe7f6" y="378"/>
      </g>
     </g>
     <g id="text_1">
      <!-- 0.0 -->
      <g transform="translate(43.520781 395.583125)scale(0.14 -0.14)">
       <defs>
        <path d="M 3209 2919 
Q 3409 2678 3507 2354 
Q 3606 2031 3606 1678 
Q 3606 1253 3484 917 
Q 3363 581 3150 359 
Q 2931 131 2631 15 
Q 2331 -100 1963 -100 
Q 1559 -100 1243 34 
Q 928 169 731 403 
Q 525 647 423 973 
Q 322 1300 322 1678 
Q 322 2050 420 2362 
Q 519 2675 728 2928 
Q 928 3172 1243 3312 
Q 1559 3453 1966 3453 
Q 2394 3453 2700 3309 
Q 3006 3166 3209 2919 
z
M 2916 1678 
Q 2916 2422 2661 2831 
Q 2406 3241 1969 3241 
Q 1525 3241 1269 2831 
Q 1013 2422 1013 1678 
Q 1013 972 1258 542 
Q 1503 113 1963 113 
Q 2422 113 2669 542 
Q 2916 972 2916 1678 
z
" id="Georgia-30" transform="scale(0.015625)"/>
        <path d="M 1297 359 
Q 1297 184 1170 60 
Q 1044 -63 869 -63 
Q 694 -63 567 60 
Q 441 184 441 359 
Q 441 534 567 661 
Q 694 788 869 788 
Q 1044 788 1170 661 
Q 1297 534 1297 359 
z
" id="Georgia-2e" transform="scale(0.015625)"/>
       </defs>
       <use xlink:href="#Georgia-30"/>
       <use x="61.376953" xlink:href="#Georgia-2e"/>
       <use x="88.330078" xlink:href="#Georgia-30"/>
      </g>
     </g>
    </g>
    <g id="xtick_2">
     <g id="line2d_3">
      <path clip-path="url(#pa0a50fe18a)" d="M 137.7 378 
L 137.7 51.84 
" style="fill:none;stroke:#b0b0b0;stroke-linecap:square;stroke-width:0.8;"/>
     </g>
     <g id="line2d_4">
      <g>
       <use style="stroke:#000000;stroke-width:0.8;" x="137.7" xlink:href="#mf99d3fe7f6" y="378"/>
      </g>
     </g>
     <g id="text_2">
      <!-- 0.2 -->
      <g transform="translate(127.606875 395.583125)scale(0.14 -0.14)">
       <defs>
        <path d="M 3272 0 
L 344 0 
L 344 425 
Q 428 522 578 642 
Q 728 763 934 903 
Q 1059 988 1234 1088 
Q 1409 1188 1631 1306 
Q 1878 1438 2011 1538 
Q 2144 1638 2253 1784 
Q 2325 1881 2369 2026 
Q 2413 2172 2413 2441 
Q 2413 2831 2203 3014 
Q 1994 3197 1666 3197 
Q 1463 3197 1281 3117 
Q 1100 3038 1009 2897 
Q 1031 2797 1064 2659 
Q 1097 2522 1097 2391 
Q 1097 2272 998 2180 
Q 900 2088 706 2088 
Q 550 2088 465 2195 
Q 381 2303 381 2484 
Q 381 2653 475 2823 
Q 569 2994 744 3138 
Q 916 3278 1169 3365 
Q 1422 3453 1716 3453 
Q 2356 3453 2732 3167 
Q 3109 2881 3109 2403 
Q 3109 2175 3042 1987 
Q 2975 1800 2825 1656 
Q 2659 1497 2437 1383 
Q 2216 1269 1759 1066 
Q 1488 944 1253 811 
Q 1019 678 869 553 
L 3272 553 
L 3272 0 
z
" id="Georgia-32" transform="scale(0.015625)"/>
       </defs>
       <use xlink:href="#Georgia-30"/>
       <use x="61.376953" xlink:href="#Georgia-2e"/>
       <use x="88.330078" xlink:href="#Georgia-32"/>
      </g>
     </g>
    </g>
    <g id="xtick_3">
     <g id="line2d_5">
      <path clip-path="url(#pa0a50fe18a)" d="M 221.4 378 
L 221.4 51.84 
" style="fill:none;stroke:#b0b0b0;stroke-linecap:square;stroke-width:0.8;"/>
     </g>
     <g id="line2d_6">
      <g>
       <use style="stroke:#000000;stroke-width:0.8;" x="221.4" xlink:href="#mf99d3fe7f6" y="378"/>
      </g>
     </g>
     <g id="text_3">
      <!-- 0.4 -->
      <g transform="translate(211.262031 395.583125)scale(0.14 -0.14)">
       <defs>
        <path d="M 3388 281 
L 2753 281 
L 2753 -1141 
L 2153 -1141 
L 2153 281 
L 153 281 
L 153 763 
L 2344 3434 
L 2753 3434 
L 2753 691 
L 3388 691 
L 3388 281 
z
M 2153 691 
L 2153 2738 
L 466 691 
L 2153 691 
z
" id="Georgia-34" transform="scale(0.015625)"/>
       </defs>
       <use xlink:href="#Georgia-30"/>
       <use x="61.376953" xlink:href="#Georgia-2e"/>
       <use x="88.330078" xlink:href="#Georgia-34"/>
      </g>
     </g>
    </g>
    <g id="xtick_4">
     <g id="line2d_7">
      <path clip-path="url(#pa0a50fe18a)" d="M 305.1 378 
L 305.1 51.84 
" style="fill:none;stroke:#b0b0b0;stroke-linecap:square;stroke-width:0.8;"/>
     </g>
     <g id="line2d_8">
      <g>
       <use style="stroke:#000000;stroke-width:0.8;" x="305.1" xlink:href="#mf99d3fe7f6" y="378"/>
      </g>
     </g>
     <g id="text_4">
      <!-- 0.6 -->
      <g transform="translate(294.955469 395.583125)scale(0.14 -0.14)">
       <defs>
        <path d="M 3359 1441 
Q 3359 1116 3242 831 
Q 3125 547 2928 347 
Q 2700 119 2423 9 
Q 2147 -100 1847 -100 
Q 1500 -100 1219 28 
Q 938 156 741 391 
Q 541 628 431 972 
Q 322 1316 322 1744 
Q 322 2859 986 3625 
Q 1650 4391 2766 4544 
L 2822 4263 
L 2541 4213 
Q 1863 3994 1492 3531 
Q 1122 3069 1013 2409 
Q 1281 2644 1543 2741 
Q 1806 2838 2097 2838 
Q 2619 2838 2989 2438 
Q 3359 2038 3359 1441 
z
M 2681 1356 
Q 2681 1863 2448 2169 
Q 2216 2475 1825 2475 
Q 1591 2475 1389 2387 
Q 1188 2300 1000 2094 
Q 997 2056 990 1920 
Q 984 1784 984 1706 
Q 984 975 1223 561 
Q 1463 147 1853 147 
Q 2225 147 2453 470 
Q 2681 794 2681 1356 
z
" id="Georgia-36" transform="scale(0.015625)"/>
       </defs>
       <use xlink:href="#Georgia-30"/>
       <use x="61.376953" xlink:href="#Georgia-2e"/>
       <use x="88.330078" xlink:href="#Georgia-36"/>
      </g>
     </g>
    </g>
    <g id="xtick_5">
     <g id="line2d_9">
      <path clip-path="url(#pa0a50fe18a)" d="M 388.8 378 
L 388.8 51.84 
" style="fill:none;stroke:#b0b0b0;stroke-linecap:square;stroke-width:0.8;"/>
     </g>
     <g id="line2d_10">
      <g>
       <use style="stroke:#000000;stroke-width:0.8;" x="388.8" xlink:href="#mf99d3fe7f6" y="378"/>
      </g>
     </g>
     <g id="text_5">
      <!-- 0.8 -->
      <g transform="translate(378.443281 395.583125)scale(0.14 -0.14)">
       <defs>
        <path d="M 3491 1175 
Q 3491 650 3037 272 
Q 2584 -106 1847 -106 
Q 1156 -106 740 241 
Q 325 588 325 1134 
Q 325 1538 570 1808 
Q 816 2078 1297 2266 
Q 900 2488 703 2753 
Q 506 3019 506 3353 
Q 506 3863 939 4206 
Q 1372 4550 1975 4550 
Q 2578 4550 2951 4225 
Q 3325 3900 3325 3409 
Q 3325 3094 3119 2811 
Q 2913 2528 2513 2347 
Q 3031 2125 3261 1856 
Q 3491 1588 3491 1175 
z
M 2734 3444 
Q 2734 3825 2507 4064 
Q 2281 4303 1928 4303 
Q 1575 4303 1350 4073 
Q 1125 3844 1125 3503 
Q 1125 3175 1381 2947 
Q 1638 2719 2294 2459 
Q 2528 2609 2631 2856 
Q 2734 3103 2734 3444 
z
M 2866 1028 
Q 2866 1225 2781 1373 
Q 2697 1522 2538 1644 
Q 2384 1763 2111 1892 
Q 1838 2022 1519 2156 
Q 1219 1994 1078 1742 
Q 938 1491 938 1169 
Q 938 709 1208 426 
Q 1478 144 1928 144 
Q 2359 144 2612 394 
Q 2866 644 2866 1028 
z
" id="Georgia-38" transform="scale(0.015625)"/>
       </defs>
       <use xlink:href="#Georgia-30"/>
       <use x="61.376953" xlink:href="#Georgia-2e"/>
       <use x="88.330078" xlink:href="#Georgia-38"/>
      </g>
     </g>
    </g>
    <g id="text_6">
     <!-- False Positive Rate -->
     <g transform="translate(154.89125 414.714375)scale(0.16 -0.16)">
      <defs>
       <path d="M 3747 3325 
L 3513 3325 
Q 3447 3572 3239 3853 
Q 3031 4134 2841 4163 
Q 2744 4175 2611 4181 
Q 2478 4188 2309 4188 
L 1566 4188 
L 1566 2406 
L 2075 2406 
Q 2306 2406 2434 2454 
Q 2563 2503 2653 2603 
Q 2716 2672 2767 2817 
Q 2819 2963 2834 3128 
L 3072 3128 
L 3072 1388 
L 2834 1388 
Q 2825 1525 2770 1700 
Q 2716 1875 2653 1953 
Q 2559 2069 2417 2111 
Q 2275 2153 2075 2153 
L 1566 2153 
L 1566 625 
Q 1566 522 1606 440 
Q 1647 359 1750 309 
Q 1797 288 1953 256 
Q 2109 225 2191 222 
L 2191 0 
L 269 0 
L 269 222 
Q 363 228 519 242 
Q 675 256 722 278 
Q 816 319 858 398 
Q 900 478 900 591 
L 900 3791 
Q 900 3894 865 3973 
Q 831 4053 722 4103 
Q 638 4144 495 4175 
Q 353 4206 269 4213 
L 269 4434 
L 3747 4434 
L 3747 3325 
z
" id="Georgia-46" transform="scale(0.015625)"/>
       <path d="M 3144 56 
Q 2997 3 2886 -30 
Q 2775 -63 2634 -63 
Q 2391 -63 2245 51 
Q 2100 166 2059 384 
L 2041 384 
Q 1838 159 1605 40 
Q 1372 -78 1044 -78 
Q 697 -78 473 134 
Q 250 347 250 691 
Q 250 869 300 1009 
Q 350 1150 450 1263 
Q 528 1356 656 1429 
Q 784 1503 897 1547 
Q 1038 1600 1467 1744 
Q 1897 1888 2047 1969 
L 2047 2278 
Q 2047 2319 2030 2434 
Q 2013 2550 1956 2653 
Q 1894 2769 1780 2855 
Q 1666 2941 1456 2941 
Q 1313 2941 1189 2892 
Q 1066 2844 1016 2791 
Q 1016 2728 1045 2606 
Q 1075 2484 1075 2381 
Q 1075 2272 976 2181 
Q 878 2091 703 2091 
Q 547 2091 473 2202 
Q 400 2313 400 2450 
Q 400 2594 501 2725 
Q 603 2856 766 2959 
Q 906 3047 1106 3108 
Q 1306 3169 1497 3169 
Q 1759 3169 1954 3133 
Q 2150 3097 2309 2978 
Q 2469 2863 2551 2664 
Q 2634 2466 2634 2153 
Q 2634 1706 2625 1361 
Q 2616 1016 2616 606 
Q 2616 484 2658 412 
Q 2700 341 2788 291 
Q 2834 263 2936 259 
Q 3038 256 3144 256 
L 3144 56 
z
M 2053 1706 
Q 1788 1628 1588 1553 
Q 1388 1478 1216 1366 
Q 1059 1259 968 1114 
Q 878 969 878 769 
Q 878 509 1014 387 
Q 1150 266 1359 266 
Q 1581 266 1750 373 
Q 1919 481 2034 628 
L 2053 1706 
z
" id="Georgia-61" transform="scale(0.015625)"/>
       <path d="M 1669 0 
L 166 0 
L 166 206 
Q 238 213 319 220 
Q 400 228 453 244 
Q 541 272 584 342 
Q 628 413 628 525 
L 628 4094 
Q 628 4206 579 4304 
Q 531 4403 453 4459 
Q 397 4497 247 4528 
Q 97 4559 6 4566 
L 6 4766 
L 1166 4838 
L 1209 4791 
L 1209 563 
Q 1209 453 1250 383 
Q 1291 313 1381 275 
Q 1450 244 1517 228 
Q 1584 213 1669 206 
L 1669 0 
z
" id="Georgia-6c" transform="scale(0.015625)"/>
       <path d="M 2259 1509 
Q 2388 1397 2456 1250 
Q 2525 1103 2525 891 
Q 2525 463 2204 191 
Q 1884 -81 1375 -81 
Q 1106 -81 879 16 
Q 653 113 556 194 
L 494 -9 
L 259 -9 
L 228 1063 
L 444 1063 
Q 469 941 550 778 
Q 631 616 747 484 
Q 869 347 1039 253 
Q 1209 159 1422 159 
Q 1722 159 1884 295 
Q 2047 431 2047 684 
Q 2047 816 1995 911 
Q 1944 1006 1844 1078 
Q 1741 1150 1591 1208 
Q 1441 1266 1256 1322 
Q 1109 1366 929 1442 
Q 750 1519 622 1622 
Q 484 1731 396 1890 
Q 309 2050 309 2266 
Q 309 2644 590 2906 
Q 872 3169 1344 3169 
Q 1525 3169 1714 3122 
Q 1903 3075 2022 3009 
L 2094 3172 
L 2319 3172 
L 2366 2181 
L 2150 2181 
Q 2084 2513 1867 2720 
Q 1650 2928 1338 2928 
Q 1081 2928 934 2800 
Q 788 2672 788 2491 
Q 788 2350 836 2256 
Q 884 2163 981 2097 
Q 1075 2034 1217 1979 
Q 1359 1925 1569 1856 
Q 1775 1791 1958 1703 
Q 2141 1616 2259 1509 
z
" id="Georgia-73" transform="scale(0.015625)"/>
       <path d="M 2963 725 
Q 2769 356 2444 137 
Q 2119 -81 1697 -81 
Q 1325 -81 1045 50 
Q 766 181 584 406 
Q 403 631 314 931 
Q 225 1231 225 1566 
Q 225 1866 320 2155 
Q 416 2444 600 2675 
Q 778 2897 1042 3033 
Q 1306 3169 1634 3169 
Q 1972 3169 2212 3062 
Q 2453 2956 2603 2772 
Q 2747 2597 2817 2359 
Q 2888 2122 2888 1844 
L 2888 1638 
L 847 1638 
Q 847 1334 905 1087 
Q 963 841 1088 653 
Q 1209 472 1406 367 
Q 1603 263 1875 263 
Q 2153 263 2354 392 
Q 2556 522 2744 859 
L 2963 725 
z
M 2272 1900 
Q 2272 2075 2242 2275 
Q 2213 2475 2147 2609 
Q 2075 2753 1950 2843 
Q 1825 2934 1628 2934 
Q 1300 2934 1083 2661 
Q 866 2388 847 1900 
L 2272 1900 
z
" id="Georgia-65" transform="scale(0.015625)"/>
       <path id="Georgia-20" transform="scale(0.015625)"/>
       <path d="M 3700 3341 
Q 3700 2994 3564 2726 
Q 3428 2459 3188 2284 
Q 2950 2109 2665 2028 
Q 2381 1947 2063 1947 
L 1566 1947 
L 1566 603 
Q 1566 494 1602 411 
Q 1638 328 1750 284 
Q 1806 263 1948 244 
Q 2091 225 2209 222 
L 2209 0 
L 306 0 
L 306 222 
Q 381 228 523 243 
Q 666 259 722 284 
Q 816 325 858 403 
Q 900 481 900 603 
L 900 3803 
Q 900 3913 869 4000 
Q 838 4088 722 4131 
Q 603 4172 486 4189 
Q 369 4206 284 4213 
L 284 4434 
L 2309 4434 
Q 2928 4434 3314 4136 
Q 3700 3838 3700 3341 
z
M 2750 2584 
Q 2856 2734 2890 2895 
Q 2925 3056 2925 3184 
Q 2925 3363 2883 3547 
Q 2841 3731 2738 3869 
Q 2628 4016 2450 4097 
Q 2272 4178 2006 4178 
L 1566 4178 
L 1566 2219 
L 1884 2219 
Q 2222 2219 2433 2323 
Q 2644 2428 2750 2584 
z
" id="Georgia-50" transform="scale(0.015625)"/>
       <path d="M 3228 1572 
Q 3228 1247 3125 933 
Q 3022 619 2831 400 
Q 2616 150 2331 28 
Q 2047 -94 1694 -94 
Q 1400 -94 1134 17 
Q 869 128 663 341 
Q 459 550 339 851 
Q 219 1153 219 1528 
Q 219 2250 639 2709 
Q 1059 3169 1741 3169 
Q 2388 3169 2808 2733 
Q 3228 2297 3228 1572 
z
M 2581 1566 
Q 2581 1800 2534 2061 
Q 2488 2322 2394 2503 
Q 2294 2697 2131 2814 
Q 1969 2931 1734 2931 
Q 1494 2931 1323 2812 
Q 1153 2694 1047 2488 
Q 947 2297 906 2053 
Q 866 1809 866 1581 
Q 866 1281 914 1026 
Q 963 772 1069 572 
Q 1175 372 1336 258 
Q 1497 144 1734 144 
Q 2125 144 2353 522 
Q 2581 900 2581 1566 
z
" id="Georgia-6f" transform="scale(0.015625)"/>
       <path d="M 1722 0 
L 231 0 
L 231 206 
Q 303 213 379 219 
Q 456 225 513 244 
Q 600 272 642 342 
Q 684 413 684 525 
L 684 2428 
Q 684 2528 639 2611 
Q 594 2694 513 2750 
Q 453 2788 340 2814 
Q 228 2841 134 2847 
L 134 3050 
L 1222 3119 
L 1266 3075 
L 1266 563 
Q 1266 453 1308 381 
Q 1350 309 1441 275 
Q 1509 247 1575 230 
Q 1641 213 1722 206 
L 1722 0 
z
M 1328 4334 
Q 1328 4156 1211 4023 
Q 1094 3891 922 3891 
Q 763 3891 645 4017 
Q 528 4144 528 4306 
Q 528 4478 645 4606 
Q 763 4734 922 4734 
Q 1100 4734 1214 4614 
Q 1328 4494 1328 4334 
z
" id="Georgia-69" transform="scale(0.015625)"/>
       <path d="M 2128 134 
Q 1925 50 1744 -8 
Q 1563 -66 1300 -66 
Q 913 -66 755 129 
Q 597 325 597 681 
L 597 2769 
L 41 2769 
L 41 3069 
L 609 3069 
L 609 4028 
L 1178 4028 
L 1178 3069 
L 2063 3069 
L 2063 2769 
L 1184 2769 
L 1184 1047 
Q 1184 853 1198 723 
Q 1213 594 1266 497 
Q 1316 406 1416 359 
Q 1516 313 1684 313 
Q 1763 313 1914 327 
Q 2066 341 2128 363 
L 2128 134 
z
" id="Georgia-74" transform="scale(0.015625)"/>
       <path d="M 3269 2891 
Q 3128 2866 3001 2789 
Q 2875 2713 2784 2519 
Q 2600 2100 2403 1645 
Q 2206 1191 1994 691 
Q 1931 547 1861 350 
Q 1791 153 1731 -28 
L 1488 -28 
Q 1191 706 941 1311 
Q 691 1916 422 2550 
Q 359 2694 220 2773 
Q 81 2853 -59 2875 
L -59 3081 
L 1366 3081 
L 1366 2863 
Q 1272 2859 1131 2823 
Q 991 2788 991 2725 
Q 991 2716 1006 2677 
Q 1022 2638 1038 2588 
Q 1166 2269 1400 1697 
Q 1634 1125 1781 775 
Q 1894 1044 2064 1444 
Q 2234 1844 2431 2338 
Q 2463 2422 2491 2495 
Q 2519 2569 2519 2644 
Q 2519 2697 2467 2739 
Q 2416 2781 2344 2813 
Q 2272 2844 2203 2859 
Q 2134 2875 2091 2881 
L 2091 3081 
L 3269 3081 
L 3269 2891 
z
" id="Georgia-76" transform="scale(0.015625)"/>
       <path d="M 4625 0 
L 3431 0 
Q 3034 622 2714 1075 
Q 2394 1528 2019 2009 
L 1566 2009 
L 1566 603 
Q 1566 494 1600 411 
Q 1634 328 1747 284 
Q 1803 263 1943 244 
Q 2084 225 2181 222 
L 2181 0 
L 306 0 
L 306 222 
Q 381 228 523 243 
Q 666 259 722 284 
Q 816 325 858 403 
Q 900 481 900 603 
L 900 3809 
Q 900 3919 869 4003 
Q 838 4088 722 4131 
Q 644 4159 519 4182 
Q 394 4206 306 4213 
L 306 4434 
L 2353 4434 
Q 2634 4434 2881 4376 
Q 3128 4319 3328 4191 
Q 3522 4066 3637 3864 
Q 3753 3663 3753 3378 
Q 3753 3122 3675 2925 
Q 3597 2728 3444 2584 
Q 3303 2450 3106 2351 
Q 2909 2253 2672 2184 
Q 3000 1750 3217 1453 
Q 3434 1156 3750 731 
Q 3888 544 3998 455 
Q 4109 366 4219 309 
Q 4300 269 4422 247 
Q 4544 225 4625 222 
L 4625 0 
z
M 2981 3306 
Q 2981 3709 2750 3945 
Q 2519 4181 2097 4181 
L 1566 4181 
L 1566 2278 
L 1975 2278 
Q 2406 2278 2693 2554 
Q 2981 2831 2981 3306 
z
" id="Georgia-52" transform="scale(0.015625)"/>
      </defs>
      <use xlink:href="#Georgia-46"/>
      <use x="59.912109" xlink:href="#Georgia-61"/>
      <use x="110.302734" xlink:href="#Georgia-6c"/>
      <use x="138.916016" xlink:href="#Georgia-73"/>
      <use x="182.128906" xlink:href="#Georgia-65"/>
      <use x="230.46875" xlink:href="#Georgia-20"/>
      <use x="254.589844" xlink:href="#Georgia-50"/>
      <use x="315.576172" xlink:href="#Georgia-6f"/>
      <use x="369.482422" xlink:href="#Georgia-73"/>
      <use x="412.695312" xlink:href="#Georgia-69"/>
      <use x="441.992188" xlink:href="#Georgia-74"/>
      <use x="476.513672" xlink:href="#Georgia-69"/>
      <use x="505.810547" xlink:href="#Georgia-76"/>
      <use x="555.46875" xlink:href="#Georgia-65"/>
      <use x="603.808594" xlink:href="#Georgia-20"/>
      <use x="627.929688" xlink:href="#Georgia-52"/>
      <use x="698.095703" xlink:href="#Georgia-61"/>
      <use x="748.486328" xlink:href="#Georgia-74"/>
      <use x="783.007812" xlink:href="#Georgia-65"/>
     </g>
    </g>
   </g>
   <g id="matplotlib.axis_2">
    <g id="ytick_1">
     <g id="line2d_11">
      <path clip-path="url(#pa0a50fe18a)" d="M 54 363.174545 
L 388.8 363.174545 
" style="fill:none;stroke:#b0b0b0;stroke-linecap:square;stroke-width:0.8;"/>
     </g>
     <g id="line2d_12">
      <defs>
       <path d="M 0 0 
L -3.5 0 
" id="mdc8ceaada0" style="stroke:#000000;stroke-width:0.8;"/>
      </defs>
      <g>
       <use style="stroke:#000000;stroke-width:0.8;" x="54" xlink:href="#mdc8ceaada0" y="363.174545"/>
      </g>
     </g>
     <g id="text_7">
      <!-- 0.0 -->
      <g transform="translate(26.041562 368.466108)scale(0.14 -0.14)">
       <use xlink:href="#Georgia-30"/>
       <use x="61.376953" xlink:href="#Georgia-2e"/>
       <use x="88.330078" xlink:href="#Georgia-30"/>
      </g>
     </g>
    </g>
    <g id="ytick_2">
     <g id="line2d_13">
      <path clip-path="url(#pa0a50fe18a)" d="M 54 303.872727 
L 388.8 303.872727 
" style="fill:none;stroke:#b0b0b0;stroke-linecap:square;stroke-width:0.8;"/>
     </g>
     <g id="line2d_14">
      <g>
       <use style="stroke:#000000;stroke-width:0.8;" x="54" xlink:href="#mdc8ceaada0" y="303.872727"/>
      </g>
     </g>
     <g id="text_8">
      <!-- 0.2 -->
      <g transform="translate(26.81375 309.16429)scale(0.14 -0.14)">
       <use xlink:href="#Georgia-30"/>
       <use x="61.376953" xlink:href="#Georgia-2e"/>
       <use x="88.330078" xlink:href="#Georgia-32"/>
      </g>
     </g>
    </g>
    <g id="ytick_3">
     <g id="line2d_15">
      <path clip-path="url(#pa0a50fe18a)" d="M 54 244.570909 
L 388.8 244.570909 
" style="fill:none;stroke:#b0b0b0;stroke-linecap:square;stroke-width:0.8;"/>
     </g>
     <g id="line2d_16">
      <g>
       <use style="stroke:#000000;stroke-width:0.8;" x="54" xlink:href="#mdc8ceaada0" y="244.570909"/>
      </g>
     </g>
     <g id="text_9">
      <!-- 0.4 -->
      <g transform="translate(26.724062 249.862472)scale(0.14 -0.14)">
       <use xlink:href="#Georgia-30"/>
       <use x="61.376953" xlink:href="#Georgia-2e"/>
       <use x="88.330078" xlink:href="#Georgia-34"/>
      </g>
     </g>
    </g>
    <g id="ytick_4">
     <g id="line2d_17">
      <path clip-path="url(#pa0a50fe18a)" d="M 54 185.269091 
L 388.8 185.269091 
" style="fill:none;stroke:#b0b0b0;stroke-linecap:square;stroke-width:0.8;"/>
     </g>
     <g id="line2d_18">
      <g>
       <use style="stroke:#000000;stroke-width:0.8;" x="54" xlink:href="#mdc8ceaada0" y="185.269091"/>
      </g>
     </g>
     <g id="text_10">
      <!-- 0.6 -->
      <g transform="translate(26.710937 190.560653)scale(0.14 -0.14)">
       <use xlink:href="#Georgia-30"/>
       <use x="61.376953" xlink:href="#Georgia-2e"/>
       <use x="88.330078" xlink:href="#Georgia-36"/>
      </g>
     </g>
    </g>
    <g id="ytick_5">
     <g id="line2d_19">
      <path clip-path="url(#pa0a50fe18a)" d="M 54 125.967273 
L 388.8 125.967273 
" style="fill:none;stroke:#b0b0b0;stroke-linecap:square;stroke-width:0.8;"/>
     </g>
     <g id="line2d_20">
      <g>
       <use style="stroke:#000000;stroke-width:0.8;" x="54" xlink:href="#mdc8ceaada0" y="125.967273"/>
      </g>
     </g>
     <g id="text_11">
      <!-- 0.8 -->
      <g transform="translate(26.286562 131.258835)scale(0.14 -0.14)">
       <use xlink:href="#Georgia-30"/>
       <use x="61.376953" xlink:href="#Georgia-2e"/>
       <use x="88.330078" xlink:href="#Georgia-38"/>
      </g>
     </g>
    </g>
    <g id="ytick_6">
     <g id="line2d_21">
      <path clip-path="url(#pa0a50fe18a)" d="M 54 66.665455 
L 388.8 66.665455 
" style="fill:none;stroke:#b0b0b0;stroke-linecap:square;stroke-width:0.8;"/>
     </g>
     <g id="line2d_22">
      <g>
       <use style="stroke:#000000;stroke-width:0.8;" x="54" xlink:href="#mdc8ceaada0" y="66.665455"/>
      </g>
     </g>
     <g id="text_12">
      <!-- 1.0 -->
      <g transform="translate(28.618437 71.957017)scale(0.14 -0.14)">
       <defs>
        <path d="M 2528 0 
L 422 0 
L 422 222 
Q 516 228 714 248 
Q 913 269 988 291 
Q 1084 322 1136 392 
Q 1188 463 1188 603 
L 1188 2797 
L 409 2797 
L 409 3059 
L 581 3059 
Q 919 3059 1186 3184 
Q 1453 3309 1569 3453 
L 1828 3453 
Q 1819 3250 1809 2978 
Q 1800 2706 1800 2491 
L 1800 638 
Q 1800 528 1848 442 
Q 1897 356 1988 316 
Q 2069 281 2253 253 
Q 2438 225 2528 222 
L 2528 0 
z
" id="Georgia-31" transform="scale(0.015625)"/>
       </defs>
       <use xlink:href="#Georgia-31"/>
       <use x="42.96875" xlink:href="#Georgia-2e"/>
       <use x="69.921875" xlink:href="#Georgia-30"/>
      </g>
     </g>
    </g>
    <g id="text_13">
     <!-- True Positive Rate -->
     <g transform="translate(18.571562 279.68625)rotate(-90)scale(0.16 -0.16)">
      <defs>
       <path d="M 3909 3231 
L 3694 3231 
Q 3666 3344 3592 3498 
Q 3519 3653 3428 3791 
Q 3334 3934 3223 4042 
Q 3113 4150 3009 4166 
Q 2913 4178 2766 4184 
Q 2619 4191 2494 4191 
L 2313 4191 
L 2313 644 
Q 2313 541 2356 455 
Q 2400 369 2509 322 
Q 2566 300 2745 262 
Q 2925 225 3025 222 
L 3025 0 
L 931 0 
L 931 222 
Q 1019 228 1198 247 
Q 1378 266 1447 294 
Q 1550 334 1598 411 
Q 1647 488 1647 616 
L 1647 4191 
L 1466 4191 
Q 1369 4191 1225 4186 
Q 1081 4181 950 4166 
Q 847 4153 736 4042 
Q 625 3931 531 3791 
Q 438 3650 366 3492 
Q 294 3334 266 3231 
L 47 3231 
L 47 4434 
L 3909 4434 
L 3909 3231 
z
" id="Georgia-54" transform="scale(0.015625)"/>
       <path d="M 2584 2684 
Q 2584 2525 2506 2401 
Q 2428 2278 2266 2278 
Q 2091 2278 1998 2368 
Q 1906 2459 1906 2569 
Q 1906 2638 1917 2694 
Q 1928 2750 1938 2806 
Q 1791 2806 1594 2687 
Q 1397 2569 1259 2350 
L 1259 556 
Q 1259 447 1301 378 
Q 1344 309 1434 275 
Q 1513 244 1636 228 
Q 1759 213 1850 206 
L 1850 0 
L 225 0 
L 225 206 
Q 297 213 373 219 
Q 450 225 506 244 
Q 594 272 636 342 
Q 678 413 678 525 
L 678 2428 
Q 678 2525 633 2619 
Q 588 2713 506 2769 
Q 447 2806 365 2823 
Q 284 2841 191 2847 
L 191 3050 
L 1216 3119 
L 1259 3075 
L 1259 2641 
L 1275 2641 
Q 1469 2894 1706 3025 
Q 1944 3156 2141 3156 
Q 2338 3156 2461 3028 
Q 2584 2900 2584 2684 
z
" id="Georgia-72" transform="scale(0.015625)"/>
       <path d="M 3528 56 
L 2525 -13 
L 2478 31 
L 2478 422 
L 2459 422 
Q 2384 344 2290 255 
Q 2197 166 2075 94 
Q 1934 9 1803 -34 
Q 1672 -78 1431 -78 
Q 1022 -78 808 189 
Q 594 456 594 966 
L 594 2441 
Q 594 2553 551 2629 
Q 509 2706 428 2763 
Q 372 2800 287 2817 
Q 203 2834 109 2841 
L 109 3044 
L 1138 3119 
L 1184 3075 
L 1184 934 
Q 1184 600 1334 431 
Q 1484 263 1694 263 
Q 1866 263 2000 316 
Q 2134 369 2225 441 
Q 2309 506 2373 579 
Q 2438 653 2472 716 
L 2472 2463 
Q 2472 2566 2428 2645 
Q 2384 2725 2306 2781 
Q 2250 2819 2139 2826 
Q 2028 2834 1891 2841 
L 1891 3044 
L 3009 3119 
L 3056 3075 
L 3056 628 
Q 3056 522 3100 447 
Q 3144 372 3222 319 
Q 3278 284 3356 273 
Q 3434 263 3528 259 
L 3528 56 
z
" id="Georgia-75" transform="scale(0.015625)"/>
      </defs>
      <use xlink:href="#Georgia-54"/>
      <use x="61.865234" xlink:href="#Georgia-72"/>
      <use x="102.832031" xlink:href="#Georgia-75"/>
      <use x="160.351562" xlink:href="#Georgia-65"/>
      <use x="208.691406" xlink:href="#Georgia-20"/>
      <use x="232.8125" xlink:href="#Georgia-50"/>
      <use x="293.798828" xlink:href="#Georgia-6f"/>
      <use x="347.705078" xlink:href="#Georgia-73"/>
      <use x="390.917969" xlink:href="#Georgia-69"/>
      <use x="420.214844" xlink:href="#Georgia-74"/>
      <use x="454.736328" xlink:href="#Georgia-69"/>
      <use x="484.033203" xlink:href="#Georgia-76"/>
      <use x="533.691406" xlink:href="#Georgia-65"/>
      <use x="582.03125" xlink:href="#Georgia-20"/>
      <use x="606.152344" xlink:href="#Georgia-52"/>
      <use x="676.318359" xlink:href="#Georgia-61"/>
      <use x="726.708984" xlink:href="#Georgia-74"/>
      <use x="761.230469" xlink:href="#Georgia-65"/>
     </g>
    </g>
   </g>
   <g id="line2d_23">
    <path clip-path="url(#pa0a50fe18a)" d="M 54 363.174545 
L 54.079141 336.067362 
L 54.237424 336.028527 
L 54.316566 332.416824 
L 54.395707 332.339153 
L 54.474849 329.076971 
L 54.55399 329.076971 
L 54.633132 327.950741 
L 54.791415 325.54294 
L 54.870556 325.54294 
L 54.949697 320.533159 
L 55.028839 320.533159 
L 55.187122 320.261311 
L 55.266263 314.513656 
L 55.345405 314.358314 
L 55.345405 313.154413 
L 55.424546 313.154413 
L 55.503688 312.804894 
L 55.66197 312.804894 
L 55.66197 312.649552 
L 55.820253 312.649552 
L 55.820253 312.455374 
L 55.978536 312.416539 
L 56.057678 310.202915 
L 56.532526 308.68833 
L 56.769951 308.338811 
L 56.769951 308.066962 
L 56.928234 308.066962 
L 57.007375 307.950455 
L 57.086517 306.3582 
L 57.165658 305.620325 
L 57.2448 304.10574 
L 57.403082 304.10574 
L 57.403082 303.173688 
L 57.561365 303.173688 
L 57.877931 301.348419 
L 58.036214 301.309584 
L 58.036214 300.727051 
L 58.115356 300.727051 
L 58.273638 299.057124 
L 58.669346 298.979453 
L 58.985911 298.824111 
L 59.065053 295.134738 
L 59.223336 295.134738 
L 59.302477 294.047344 
L 59.539902 293.969673 
L 59.856467 293.969673 
L 59.935609 293.503647 
L 60.252175 293.425976 
L 60.489599 293.270634 
L 60.647882 292.688101 
L 60.727023 292.649266 
L 60.806165 292.144404 
L 60.964448 292.144404 
L 61.122731 292.027898 
L 61.122731 291.872556 
L 61.201872 291.872556 
L 61.597579 291.83372 
L 61.835004 291.523036 
L 62.072428 291.523036 
L 62.072428 291.328859 
L 62.15157 291.328859 
L 62.309852 284.454974 
L 62.547277 284.454974 
L 62.784701 281.852995 
L 63.022126 281.581147 
L 63.101267 280.377246 
L 63.338691 280.183068 
L 63.576116 270.74604 
L 63.971823 266.357628 
L 64.36753 266.357628 
L 64.604955 261.969216 
L 65.000662 261.969216 
L 65.317228 260.920657 
L 65.950359 260.920657 
L 65.950359 260.493467 
L 66.266925 260.105112 
L 66.504349 259.444908 
L 66.741774 259.134224 
L 66.820915 254.357457 
L 66.979198 254.318621 
L 67.137481 253.075885 
L 67.137481 252.376846 
L 67.374905 252.376846 
L 67.61233 246.046658 
L 67.770613 244.570909 
L 68.324603 244.027212 
L 68.562027 244.027212 
L 68.878593 242.823311 
L 69.670008 242.551463 
L 69.749149 242.551463 
L 70.065715 242.124272 
L 70.223998 242.124272 
L 70.223998 241.425233 
L 70.461422 241.036878 
L 70.619705 240.920371 
L 70.619705 240.687358 
L 70.777988 237.852366 
L 70.857129 233.968816 
L 71.252837 233.92998 
L 71.41112 232.803751 
L 71.569402 232.37656 
L 71.727685 231.328001 
L 71.727685 228.57068 
L 71.885968 228.531845 
L 71.96511 227.988148 
L 72.281675 226.201715 
L 72.677383 226.046373 
L 72.835666 225.46384 
L 73.547939 225.308498 
L 73.864505 224.415281 
L 74.022787 224.376446 
L 74.18107 223.444394 
L 74.497636 223.366723 
L 75.051626 223.289052 
L 75.289051 222.356999 
L 75.447334 222.356999 
L 75.684758 221.852138 
L 76.001324 221.774467 
L 76.31789 221.541454 
L 76.555314 221.153099 
L 76.87188 219.211323 
L 77.346728 219.211323 
L 77.663294 219.055981 
L 77.663294 218.085094 
L 77.821577 217.77441 
L 78.138143 215.677292 
L 78.375567 215.677292 
L 78.53385 214.900582 
L 78.771275 214.900582 
L 78.929557 214.667569 
L 79.08784 214.085037 
L 79.325265 213.852024 
L 79.483548 213.619011 
L 79.800113 210.900525 
L 79.879255 210.784019 
L 80.037538 210.784019 
L 80.195821 210.667512 
L 80.433245 210.667512 
L 80.670669 209.813131 
L 80.908094 207.754849 
L 81.22466 207.483001 
L 81.382943 207.05581 
L 81.382943 206.240264 
L 82.174357 206.162593 
L 82.570064 206.123758 
L 82.728347 205.774238 
L 83.203196 205.696567 
L 83.361479 205.50239 
L 83.519762 204.37616 
L 83.757186 204.37616 
L 84.073752 204.259654 
L 84.706884 204.02664 
L 85.181732 204.02664 
L 85.656581 201.580004 
L 86.13143 200.337267 
L 86.843703 200.259596 
L 87.397693 199.832406 
L 87.476834 198.395492 
L 88.030825 198.395492 
L 88.189107 197.308098 
L 88.663956 196.919743 
L 89.455371 196.725565 
L 89.930219 195.521665 
L 90.246785 195.288652 
L 90.879917 195.094474 
L 91.117341 193.424547 
L 91.59219 193.152699 
L 91.671331 192.803179 
L 92.14618 192.725508 
L 92.462746 190.2012 
L 93.25416 190.162365 
L 93.649868 188.9973 
L 94.045575 188.64778 
L 94.757848 186.900182 
L 95.232697 186.162308 
L 95.549262 186.162308 
L 95.786687 185.657446 
L 97.686082 185.19142 
L 98.319213 184.647723 
L 98.873203 184.492381 
L 99.189769 184.220532 
L 99.585477 184.142861 
L 99.743759 182.977796 
L 101.40573 182.783619 
L 101.643154 181.579718 
L 101.95972 181.540882 
L 102.355427 181.346705 
L 103.0677 181.346705 
L 103.384266 179.210752 
L 103.859115 178.861232 
L 104.413105 178.861232 
L 105.283661 178.2787 
L 105.679368 176.103911 
L 106.3125 175.637885 
L 106.787349 175.482543 
L 107.97447 173.307755 
L 108.370178 173.307755 
L 109.003309 170.705776 
L 110.032148 170.628105 
L 110.190431 169.424204 
L 111.140129 168.414481 
L 112.643816 159.482315 
L 113.435231 159.443479 
L 114.305787 159.365808 
L 115.097201 158.472592 
L 115.334626 158.394921 
L 115.651191 158.084236 
L 116.12604 157.890059 
L 118.262859 157.540539 
L 118.816849 157.113349 
L 120.241396 156.724994 
L 120.557961 155.870613 
L 121.5868 154.93856 
L 122.219932 154.783218 
L 122.378215 153.773495 
L 122.932205 153.579318 
L 123.327912 153.190963 
L 123.881902 153.152127 
L 124.198468 152.763772 
L 124.673317 151.132681 
L 125.227307 151.132681 
L 126.730995 150.239464 
L 127.364126 149.618096 
L 129.105238 149.50159 
L 129.975794 149.229741 
L 130.767209 148.491866 
L 131.637765 148.37536 
L 132.508321 148.142347 
L 133.062311 147.559814 
L 133.616301 145.889887 
L 134.249433 145.540368 
L 134.803423 145.462697 
L 135.832262 143.831606 
L 136.544535 139.054838 
L 137.415091 138.394635 
L 137.969081 138.394635 
L 139.077061 138.161622 
L 139.314486 137.812102 
L 139.947617 137.773267 
L 141.134739 137.423747 
L 141.609588 135.714985 
L 141.926154 135.714985 
L 142.638427 134.860604 
L 143.429841 134.705262 
L 143.825548 132.802322 
L 144.300397 132.375131 
L 145.883226 131.909105 
L 147.386914 131.054724 
L 148.178328 130.899382 
L 148.732318 129.850823 
L 149.523733 129.501304 
L 150.710855 129.229455 
L 151.423128 128.685758 
L 151.977118 128.685758 
L 152.451967 127.947884 
L 155.221918 127.598364 
L 155.696766 127.326515 
L 156.567322 127.326515 
L 158.150151 126.549805 
L 159.653839 124.375017 
L 160.366112 123.83132 
L 161.315809 122.122558 
L 162.97778 121.501189 
L 163.53177 121.501189 
L 164.244043 121.229341 
L 164.798033 120.763315 
L 165.272882 120.180782 
L 166.697428 119.442908 
L 167.647126 118.277842 
L 168.834247 117.850652 
L 169.388238 117.772981 
L 170.575359 117.734145 
L 172.395613 116.56908 
L 173.028744 116.297232 
L 174.295008 116.297232 
L 178.568646 115.753535 
L 179.360061 115.093331 
L 179.993192 114.394292 
L 181.101172 112.918543 
L 182.525719 112.763201 
L 183.396275 112.413681 
L 184.741679 112.064161 
L 185.374811 111.598135 
L 186.087084 111.365122 
L 186.878498 111.326287 
L 187.828196 110.743754 
L 189.727591 110.083551 
L 190.835571 110.044715 
L 191.86441 109.617525 
L 192.814107 108.025269 
L 194.080371 107.869927 
L 195.346634 107.442736 
L 196.058907 107.015546 
L 197.087746 106.161164 
L 199.857697 106.005822 
L 200.807394 105.539796 
L 201.757092 105.345619 
L 203.656486 105.267948 
L 204.606184 105.229112 
L 206.268154 104.918428 
L 206.58472 104.180554 
L 208.800681 103.947541 
L 209.750378 102.898982 
L 210.541793 101.850423 
L 211.570632 99.71447 
L 212.124622 98.898925 
L 213.470026 98.860089 
L 214.73629 98.665912 
L 216.160836 97.578518 
L 216.873109 97.345505 
L 218.139372 96.335781 
L 219.247352 96.180439 
L 220.19705 95.597907 
L 221.225889 95.364894 
L 222.333869 94.976539 
L 223.362708 94.743526 
L 224.312405 94.70469 
L 225.420386 93.656131 
L 228.190337 93.384283 
L 229.219175 93.384283 
L 231.11857 92.957092 
L 232.068268 92.724079 
L 233.413672 92.646408 
L 234.284228 92.335724 
L 234.91736 92.258053 
L 235.47135 91.908534 
L 238.16216 91.714356 
L 239.27014 91.520179 
L 239.744989 91.015317 
L 242.752364 90.821139 
L 243.62292 89.190048 
L 249.162821 88.879364 
L 250.19166 88.56868 
L 251.299641 88.529845 
L 254.702723 87.597792 
L 255.889845 87.248273 
L 256.522977 86.937589 
L 258.580654 86.937589 
L 260.400908 85.228827 
L 263.329141 84.918143 
L 263.962273 84.490952 
L 264.437122 84.413281 
L 265.386819 83.791913 
L 266.178234 83.753077 
L 266.811365 82.160822 
L 270.214448 81.034592 
L 271.164145 80.956921 
L 271.797277 80.646237 
L 272.272126 79.714185 
L 274.962935 79.558843 
L 276.150057 79.558843 
L 276.545764 79.015146 
L 277.258037 78.743297 
L 278.128593 77.733574 
L 286.280163 76.762686 
L 286.67587 75.558785 
L 287.546426 75.403443 
L 289.129255 75.325772 
L 289.604104 75.209266 
L 291.58264 75.131595 
L 291.978347 74.665569 
L 292.848903 74.121872 
L 295.38143 74.083036 
L 295.93542 70.16065 
L 296.331127 69.849966 
L 300.921331 69.073256 
L 301.158756 68.840243 
L 301.39618 68.840243 
L 301.871029 68.451888 
L 302.662443 68.413052 
L 303.058151 68.335381 
L 304.64098 68.335381 
L 305.353253 68.102368 
L 306.065526 68.102368 
L 306.540374 67.947026 
L 308.518911 67.908191 
L 308.993759 67.791684 
L 312.159418 67.714013 
L 312.634266 67.442165 
L 317.778461 67.364494 
L 319.756997 67.325658 
L 329.966244 67.286823 
L 333.606751 66.820797 
L 433 66.713079 
L 433 66.713079 
" style="fill:none;stroke:#1f77b4;stroke-dasharray:2,3.3;stroke-dashoffset:0;stroke-width:2;"/>
   </g>
   <g id="line2d_24">
    <path clip-path="url(#pa0a50fe18a)" d="M 54 363.174545 
L 54 360.213403 
L 54.304142 358.436717 
L 54.304142 353.501479 
L 54.608285 353.501479 
L 54.608285 347.974013 
L 54.912427 347.974013 
L 54.912427 341.459499 
L 55.21657 341.262089 
L 55.21657 335.932032 
L 55.520712 335.932032 
L 55.520712 334.155347 
L 56.128997 334.155347 
L 56.128997 329.417518 
L 56.43314 328.233061 
L 56.43314 326.061557 
L 56.737282 325.469328 
L 57.041424 324.482281 
L 57.041424 323.692643 
L 57.345567 322.903004 
L 57.345567 321.915957 
L 57.649709 321.126319 
L 57.649709 318.362586 
L 58.257994 317.572948 
L 58.257994 313.624757 
L 58.562137 313.427348 
L 58.562137 312.835119 
L 58.866279 312.63771 
L 59.170422 312.63771 
L 59.474564 312.242891 
L 59.474564 310.663615 
L 60.082849 309.676567 
L 60.386991 309.479157 
L 60.691134 308.49211 
L 61.603561 308.49211 
L 61.907703 308.097291 
L 61.907703 307.899881 
L 62.211846 307.505062 
L 62.211846 307.307653 
L 62.515988 306.715424 
L 62.515988 305.728377 
L 62.820131 305.333558 
L 63.124273 305.333558 
L 63.124273 304.938739 
L 63.732558 304.741329 
L 63.732558 304.149101 
L 64.036701 304.149101 
L 64.036701 303.951691 
L 64.340843 303.951691 
L 64.340843 302.767234 
L 64.644985 301.780186 
L 64.644985 301.385367 
L 64.949128 301.187958 
L 65.25327 300.793139 
L 65.25327 300.595729 
L 65.557413 300.595729 
L 65.557413 300.20091 
L 65.861555 299.608682 
L 65.861555 296.844949 
L 66.165698 296.647539 
L 66.165698 295.463082 
L 67.078125 295.068263 
L 67.078125 294.278625 
L 67.382267 293.291577 
L 67.382267 290.922663 
L 67.68641 290.527844 
L 68.294695 289.935616 
L 68.598837 288.553749 
L 68.90298 288.356339 
L 69.207122 288.356339 
L 69.511265 287.96152 
L 69.815407 286.974473 
L 69.815407 286.579654 
L 70.119549 285.592606 
L 70.119549 283.421102 
L 70.423692 283.421102 
L 70.727834 282.434054 
L 70.727834 278.485864 
L 71.031977 278.485864 
L 71.031977 277.893635 
L 71.336119 277.696226 
L 71.336119 273.353216 
L 71.944404 272.958397 
L 72.856831 269.602436 
L 73.465116 269.207617 
L 73.465116 268.615388 
L 73.769259 268.417978 
L 73.769259 267.430931 
L 74.073401 266.641293 
L 74.377544 266.443883 
L 74.377544 265.456836 
L 74.985828 264.469788 
L 75.289971 264.469788 
L 75.594113 263.87756 
L 75.898256 263.87756 
L 75.898256 263.285331 
L 76.810683 263.087922 
L 76.810683 262.693103 
L 77.114826 261.311236 
L 77.418968 260.916417 
L 77.418968 258.350093 
L 77.72311 257.757865 
L 77.72311 255.981179 
L 78.331395 255.38895 
L 78.93968 255.38895 
L 78.93968 254.994131 
L 79.852108 254.994131 
L 80.15625 254.796722 
L 80.460392 254.204493 
L 80.764535 254.204493 
L 80.764535 251.835579 
L 81.068677 251.835579 
L 81.676962 251.63817 
L 81.676962 250.651122 
L 81.981105 250.256303 
L 82.58939 250.058894 
L 83.501817 249.071846 
L 83.805959 248.084798 
L 84.110102 247.49257 
L 84.414244 246.308113 
L 84.718387 245.715884 
L 85.326672 244.926246 
L 85.326672 242.754742 
L 85.630814 242.557332 
L 85.630814 240.978056 
L 85.934956 239.596189 
L 86.543241 238.806551 
L 86.847384 238.214323 
L 87.151526 238.016913 
L 87.151526 233.476494 
L 88.368096 231.897218 
L 88.368096 231.10758 
L 88.976381 230.712761 
L 90.192951 228.738666 
L 90.801235 228.146437 
L 91.105378 226.567161 
L 91.40952 225.777523 
L 91.713663 225.382704 
L 91.713663 223.803428 
L 92.017805 223.408609 
L 92.62609 223.2112 
L 94.146802 222.224152 
L 95.05923 221.237104 
L 95.971657 220.842285 
L 96.579942 220.842285 
L 97.188227 219.460419 
L 98.100654 219.460419 
L 98.404797 218.275962 
L 98.708939 218.275962 
L 99.621366 217.486324 
L 99.925509 216.104457 
L 99.925509 214.72259 
L 101.142078 214.525181 
L 101.142078 214.130362 
L 101.750363 213.538133 
L 101.750363 213.340724 
L 102.054506 212.353676 
L 102.054506 211.564038 
L 102.662791 210.7744 
L 102.662791 209.787353 
L 103.575218 207.813257 
L 103.575218 207.418438 
L 104.487645 206.233981 
L 104.791788 205.444343 
L 105.400073 205.246934 
L 105.704215 204.457296 
L 106.3125 204.457296 
L 106.920785 203.470248 
L 106.920785 202.87802 
L 107.833212 202.87802 
L 107.833212 202.68061 
L 108.74564 202.483201 
L 108.74564 201.101334 
L 109.353924 200.509105 
L 109.353924 199.719467 
L 109.658067 199.719467 
L 109.658067 198.53501 
L 110.266352 198.53501 
L 111.482922 196.166096 
L 112.699491 195.771277 
L 113.307776 195.376458 
L 114.220203 194.38941 
L 114.220203 191.428268 
L 114.828488 191.428268 
L 115.132631 189.454173 
L 115.436773 188.664535 
L 115.740916 188.664535 
L 115.740916 187.677487 
L 116.045058 187.282668 
L 116.045058 187.085258 
L 116.349201 185.900801 
L 117.261628 184.518935 
L 117.869913 184.124116 
L 118.174055 183.729297 
L 119.99891 183.729297 
L 121.519622 183.137068 
L 121.519622 182.742249 
L 121.823765 182.34743 
L 122.432049 182.34743 
L 123.040334 182.150021 
L 123.344477 181.557792 
L 124.256904 181.557792 
L 124.561047 178.794059 
L 124.865189 178.794059 
L 125.777616 177.609602 
L 126.690044 175.438097 
L 127.602471 173.858821 
L 128.210756 173.266592 
L 128.514898 173.266592 
L 129.427326 172.674364 
L 129.731468 171.884726 
L 130.643895 170.700269 
L 130.948038 168.528764 
L 131.860465 168.331355 
L 131.860465 167.146897 
L 132.164608 167.146897 
L 133.077035 166.554669 
L 135.206032 165.567621 
L 136.726744 165.567621 
L 137.335029 165.172802 
L 137.335029 164.777983 
L 138.247456 163.593526 
L 138.855741 163.396117 
L 138.855741 162.409069 
L 139.768169 161.224612 
L 141.288881 161.224612 
L 141.593023 161.027203 
L 141.897166 161.027203 
L 142.505451 160.829793 
L 142.809593 160.434974 
L 143.72202 160.237564 
L 144.634448 160.237564 
L 146.15516 159.645336 
L 147.067587 159.645336 
L 148.892442 159.053107 
L 148.892442 158.855698 
L 149.500727 157.671241 
L 150.717297 157.276422 
L 151.629724 156.684193 
L 152.238009 155.894555 
L 153.150436 155.697146 
L 154.062863 154.315279 
L 154.367006 153.328231 
L 154.975291 153.130822 
L 156.800145 151.946365 
L 157.712573 151.946365 
L 158.016715 151.156727 
L 158.929142 149.182632 
L 160.145712 148.195584 
L 160.449855 148.195584 
L 161.05814 147.998175 
L 162.274709 146.813717 
L 165.011991 145.431851 
L 165.924419 145.431851 
L 168.357558 145.234441 
L 168.661701 145.037032 
L 169.269985 145.037032 
L 170.182413 144.839622 
L 170.182413 144.642213 
L 172.919695 143.852575 
L 173.223837 142.865527 
L 173.832122 142.865527 
L 174.440407 142.273299 
L 175.352834 141.87848 
L 175.352834 139.312156 
L 175.961119 139.312156 
L 176.569404 138.917337 
L 176.873547 138.522518 
L 176.873547 138.325108 
L 178.394259 138.325108 
L 179.002544 137.930289 
L 179.306686 137.338061 
L 180.219113 136.943242 
L 181.435683 136.943242 
L 182.043968 135.561375 
L 182.652253 134.969147 
L 183.868823 134.574328 
L 184.477108 133.58728 
L 185.99782 132.600232 
L 186.910247 132.402823 
L 187.822674 131.810594 
L 187.822674 131.218366 
L 188.735102 130.626137 
L 189.039244 130.626137 
L 189.039244 130.428728 
L 189.647529 129.63909 
L 190.559956 128.059814 
L 192.384811 126.875356 
L 193.297238 126.677947 
L 194.209666 126.677947 
L 194.817951 126.283128 
L 195.122093 125.690899 
L 195.122093 125.29608 
L 195.426235 124.703852 
L 196.03452 124.111623 
L 196.946948 123.914214 
L 197.859375 123.716804 
L 198.46766 123.716804 
L 198.771802 123.321985 
L 199.075945 123.124576 
L 199.380087 122.532347 
L 199.988372 120.755662 
L 201.509084 120.558252 
L 202.117369 120.360843 
L 203.942224 120.360843 
L 204.854651 119.768614 
L 206.679506 119.768614 
L 207.591933 118.978976 
L 208.200218 118.781566 
L 209.72093 118.584157 
L 210.633358 117.991928 
L 212.458212 117.20229 
L 213.37064 115.623014 
L 214.283067 115.623014 
L 214.283067 115.425605 
L 214.587209 115.425605 
L 214.891352 115.228195 
L 214.891352 114.833376 
L 215.195494 114.438557 
L 216.107922 114.241148 
L 216.716206 113.648919 
L 216.716206 113.45151 
L 217.628634 112.859281 
L 218.236919 112.661871 
L 219.149346 111.674824 
L 219.149346 111.477414 
L 220.061773 111.477414 
L 220.974201 109.700729 
L 221.886628 109.30591 
L 222.19077 108.713681 
L 222.494913 108.713681 
L 223.103198 106.739586 
L 223.40734 106.542176 
L 224.319767 106.344767 
L 224.928052 105.949948 
L 225.232195 105.949948 
L 227.361192 105.555129 
L 227.665334 104.173262 
L 229.794331 102.791396 
L 231.619186 102.791396 
L 232.835756 102.199167 
L 233.444041 101.804348 
L 234.052326 101.21212 
L 234.66061 100.817301 
L 235.268895 100.619891 
L 236.181323 100.619891 
L 236.181323 100.027663 
L 237.397892 99.632843 
L 237.702035 99.238024 
L 238.31032 98.843205 
L 238.918605 98.250977 
L 240.439317 97.856158 
L 240.743459 97.856158 
L 241.351744 97.658748 
L 242.568314 97.658748 
L 243.176599 97.06652 
L 244.089026 97.06652 
L 244.393169 96.474291 
L 244.393169 95.684653 
L 245.001453 95.289834 
L 246.218023 95.289834 
L 246.522166 94.895015 
L 247.130451 94.697606 
L 247.130451 94.500196 
L 247.434593 94.302787 
L 248.34702 94.302787 
L 248.955305 93.907968 
L 250.476017 93.907968 
L 250.78016 93.11833 
L 253.213299 93.11833 
L 254.125727 92.92092 
L 254.429869 92.526101 
L 255.038154 92.526101 
L 255.038154 92.131282 
L 255.342297 91.933872 
L 255.342297 91.341644 
L 255.950581 90.946825 
L 255.950581 90.552006 
L 256.254724 90.552006 
L 256.558866 90.157187 
L 256.863009 90.157187 
L 258.079578 89.762368 
L 258.687863 89.762368 
L 258.687863 88.97273 
L 259.904433 88.97273 
L 261.121003 88.77532 
L 262.945858 87.985682 
L 264.46657 87.393454 
L 265.074855 86.603816 
L 265.378997 86.406406 
L 266.595567 86.011587 
L 268.420422 86.011587 
L 268.420422 85.221949 
L 269.636991 85.221949 
L 271.157703 83.840082 
L 272.374273 83.642673 
L 272.982558 83.050444 
L 274.199128 81.273759 
L 275.111555 80.484121 
L 275.415698 80.484121 
L 276.023983 80.286711 
L 276.023983 79.497073 
L 277.240552 79.497073 
L 277.240552 79.299663 
L 277.544695 79.102254 
L 278.15298 78.904844 
L 278.15298 78.510025 
L 278.457122 78.312616 
L 278.457122 77.917797 
L 278.761265 77.720387 
L 279.369549 77.720387 
L 279.369549 77.522978 
L 279.977834 77.522978 
L 279.977834 77.325568 
L 281.194404 77.128159 
L 281.498547 76.930749 
L 282.106831 76.930749 
L 282.106831 76.53593 
L 282.410974 76.338521 
L 283.323401 76.338521 
L 283.931686 75.943702 
L 284.539971 75.943702 
L 285.148256 75.548883 
L 285.148256 75.351473 
L 286.060683 75.351473 
L 286.364826 75.154064 
L 286.364826 74.364426 
L 287.581395 74.364426 
L 287.581395 74.167016 
L 288.18968 73.772197 
L 288.493823 73.772197 
L 288.797965 73.574788 
L 289.102108 73.574788 
L 289.102108 72.982559 
L 289.40625 72.982559 
L 289.710392 72.785149 
L 290.014535 72.785149 
L 290.014535 72.39033 
L 290.62282 72.39033 
L 290.62282 72.192921 
L 291.83939 72.192921 
L 292.143532 71.995511 
L 292.143532 71.798102 
L 293.055959 71.798102 
L 293.055959 71.205873 
L 293.360102 71.205873 
L 293.664244 71.008464 
L 293.664244 70.416235 
L 293.968387 70.416235 
L 293.968387 69.626597 
L 294.272529 69.626597 
L 294.272529 69.429188 
L 295.489099 69.429188 
L 295.489099 69.231778 
L 296.705669 69.231778 
L 297.009811 69.034369 
L 298.530523 69.034369 
L 298.530523 68.244731 
L 298.834666 68.244731 
L 298.834666 67.849912 
L 301.267805 67.849912 
L 301.267805 67.652502 
L 318.603924 67.652502 
L 318.908067 67.455093 
L 342.327035 67.455093 
L 346.280887 67.060274 
L 349.626453 67.060274 
L 354.18859 66.665455 
L 433 66.665455 
L 433 66.665455 
" style="fill:none;stroke:#ff0000;stroke-dasharray:7.4,3.2;stroke-dashoffset:0;stroke-width:2;"/>
   </g>
   <g id="line2d_25">
    <path clip-path="url(#pa0a50fe18a)" d="M 54 363.174545 
L 54 350.449364 
L 54.182751 350.449364 
L 54.182751 350.078727 
L 54.365502 350.078727 
L 54.365502 349.337455 
L 54.548253 349.090364 
L 54.731004 348.102 
L 54.731004 336.735818 
L 54.913755 336.612273 
L 54.913755 335.500364 
L 55.096507 335.376818 
L 55.096507 332.041091 
L 55.279258 331.423364 
L 55.462009 331.299818 
L 55.462009 325.863818 
L 55.64476 325.863818 
L 55.64476 324.504818 
L 55.827511 324.010636 
L 56.010262 324.010636 
L 56.010262 323.64 
L 56.375764 323.64 
L 56.375764 323.145818 
L 56.558515 323.022273 
L 56.558515 322.404545 
L 56.741266 321.786818 
L 56.741266 319.439455 
L 56.924017 319.439455 
L 56.924017 315.238909 
L 57.106769 314.868273 
L 57.106769 312.026727 
L 57.28952 312.026727 
L 57.28952 311.285455 
L 57.837773 310.544182 
L 58.203275 310.544182 
L 58.203275 310.420636 
L 58.386026 310.05 
L 58.386026 309.679364 
L 58.568777 309.185182 
L 58.751528 307.826182 
L 59.117031 307.826182 
L 59.117031 307.332 
L 59.482533 306.837818 
L 59.482533 305.973 
L 59.665284 305.478818 
L 59.665284 300.166364 
L 60.030786 299.795727 
L 60.030786 295.842273 
L 60.579039 295.842273 
L 60.579039 293.865545 
L 60.76179 293.865545 
L 60.76179 292.630091 
L 61.127293 292.630091 
L 61.310044 292.383 
L 61.310044 291.518182 
L 61.492795 290.529818 
L 61.675546 290.529818 
L 61.858297 290.159182 
L 61.858297 288.800182 
L 62.40655 286.699909 
L 62.40655 285.835091 
L 62.589301 285.588 
L 62.589301 284.970273 
L 62.954803 284.970273 
L 63.137555 284.105455 
L 63.320306 284.105455 
L 63.320306 283.240636 
L 63.503057 283.240636 
L 63.503057 282.622909 
L 64.234061 280.893273 
L 64.234061 280.646182 
L 64.416812 280.646182 
L 64.782314 279.904909 
L 65.330568 279.040091 
L 65.513319 279.040091 
L 65.513319 278.669455 
L 65.69607 277.928182 
L 65.69607 275.951455 
L 66.061572 275.951455 
L 66.244323 275.457273 
L 66.427074 272.368636 
L 66.427074 269.897727 
L 66.609825 269.774182 
L 67.34083 269.774182 
L 67.34083 268.291636 
L 67.889083 268.044545 
L 67.889083 267.550364 
L 68.254585 266.809091 
L 68.254585 264.585273 
L 68.437336 264.214636 
L 68.98559 264.214636 
L 69.716594 261.126 
L 69.716594 259.025727 
L 70.447598 257.419636 
L 70.995852 251.860091 
L 71.178603 251.365909 
L 71.544105 251.365909 
L 72.092358 251.118818 
L 72.640611 251.118818 
L 73.006114 250.377545 
L 73.006114 249.142091 
L 73.188865 248.647909 
L 73.188865 247.906636 
L 73.371616 247.536 
L 73.919869 247.412455 
L 74.285371 246.424091 
L 74.285371 245.929909 
L 74.468122 245.929909 
L 74.468122 244.200273 
L 74.650873 244.200273 
L 75.016376 244.076727 
L 75.74738 243.211909 
L 75.74738 240.617455 
L 76.112882 240.123273 
L 76.112882 239.382 
L 76.478384 237.034636 
L 76.843886 236.416909 
L 76.843886 235.552091 
L 77.026638 234.687273 
L 77.574891 234.687273 
L 77.757642 234.563727 
L 78.488646 234.316636 
L 78.488646 233.946 
L 78.671397 231.598636 
L 79.402402 230.733818 
L 79.950655 229.004182 
L 80.316157 228.880636 
L 80.86441 227.645182 
L 81.047162 225.668455 
L 81.229913 225.421364 
L 83.057424 225.421364 
L 83.422926 224.680091 
L 83.605677 224.680091 
L 83.971179 224.433 
L 84.519432 223.815273 
L 84.519432 223.197545 
L 84.702183 222.703364 
L 84.702183 221.220818 
L 84.884934 220.726636 
L 85.067686 220.726636 
L 85.250437 220.603091 
L 85.250437 218.749909 
L 85.615939 215.908364 
L 86.164192 215.908364 
L 86.529694 215.784818 
L 86.712445 215.043545 
L 87.077948 214.672909 
L 87.808952 214.672909 
L 87.991703 214.425818 
L 87.991703 213.190364 
L 89.270961 212.202 
L 89.819214 211.460727 
L 90.550218 211.460727 
L 90.550218 210.472364 
L 90.915721 209.854636 
L 91.098472 206.271818 
L 92.012227 205.407 
L 92.377729 205.283455 
L 92.743231 204.912818 
L 92.925983 204.418636 
L 93.108734 204.418636 
L 93.474236 204.048 
L 94.022489 203.924455 
L 94.570742 201.453545 
L 94.936245 201.082909 
L 95.301747 200.959364 
L 96.032751 199.971 
L 96.581004 199.723909 
L 97.49476 198.364909 
L 97.677511 197.870727 
L 98.043013 196.141091 
L 98.408515 195.646909 
L 99.505022 194.782091 
L 100.053275 194.040818 
L 100.418777 194.040818 
L 101.149782 193.917273 
L 101.880786 193.546636 
L 102.063537 192.064091 
L 102.429039 190.705091 
L 102.61179 190.458 
L 103.342795 187.863545 
L 103.708297 187.616455 
L 103.708297 186.751636 
L 104.073799 186.751636 
L 104.622052 186.504545 
L 104.987555 184.774909 
L 105.353057 184.774909 
L 105.353057 182.921727 
L 105.90131 182.798182 
L 106.815066 181.068545 
L 107.363319 180.697909 
L 108.277074 180.697909 
L 108.642576 180.574364 
L 109.008079 180.327273 
L 109.373581 180.327273 
L 109.373581 180.080182 
L 109.739083 180.080182 
L 110.470087 178.350545 
L 111.018341 178.350545 
L 111.201092 178.103455 
L 111.749345 178.103455 
L 112.114847 177.362182 
L 112.845852 177.362182 
L 113.028603 176.991545 
L 114.856114 176.003182 
L 115.038865 175.632545 
L 115.95262 173.408727 
L 116.866376 173.038091 
L 117.59738 172.914545 
L 117.780131 172.420364 
L 118.511135 172.420364 
L 119.607642 171.555545 
L 119.790393 170.814273 
L 120.155895 169.949455 
L 120.8869 169.949455 
L 121.069651 168.837545 
L 121.800655 168.343364 
L 122.348908 167.602091 
L 122.897162 167.107909 
L 123.810917 166.860818 
L 123.810917 166.366636 
L 124.176419 165.748909 
L 124.35917 162.907364 
L 124.541921 162.783818 
L 124.907424 161.795455 
L 125.272926 161.177727 
L 125.272926 160.807091 
L 126.00393 160.312909 
L 126.734934 160.312909 
L 127.283188 160.065818 
L 127.831441 159.448091 
L 128.562445 159.448091 
L 128.745197 158.830364 
L 129.29345 158.212636 
L 129.841703 157.965545 
L 130.572707 157.965545 
L 132.217467 156.977182 
L 133.496725 156.359455 
L 133.679476 155.618182 
L 134.227729 155.247545 
L 134.41048 154.259182 
L 135.324236 150.676364 
L 135.872489 150.058636 
L 136.05524 148.946727 
L 136.603493 148.205455 
L 137.151747 147.834818 
L 137.517249 147.340636 
L 138.248253 146.722909 
L 138.431004 145.611 
L 141.720524 144.869727 
L 142.086026 144.499091 
L 144.096288 144.004909 
L 145.375546 141.410455 
L 146.10655 140.669182 
L 146.654803 140.298545 
L 146.837555 139.557273 
L 147.203057 138.816 
L 148.482314 137.827636 
L 149.761572 137.827636 
L 149.944323 137.333455 
L 150.858079 136.962818 
L 152.137336 136.839273 
L 152.868341 136.592182 
L 153.051092 136.098 
L 155.426856 135.603818 
L 156.888865 134.491909 
L 157.254367 134.121273 
L 157.80262 133.132909 
L 158.716376 133.132909 
L 159.44738 132.638727 
L 159.630131 131.403273 
L 160.178384 131.156182 
L 161.274891 131.032636 
L 161.274891 130.785545 
L 162.188646 130.662 
L 164.016157 129.797182 
L 165.295415 128.808818 
L 165.660917 128.191091 
L 167.671179 127.202727 
L 170.960699 126.832091 
L 171.326201 126.585 
L 174.432969 125.967273 
L 175.529476 125.596636 
L 176.625983 125.473091 
L 177.174236 125.226 
L 178.453493 125.102455 
L 178.636245 124.855364 
L 180.281004 124.237636 
L 181.560262 122.013818 
L 181.925764 121.766727 
L 182.474017 121.643182 
L 183.753275 121.643182 
L 184.849782 121.396091 
L 187.95655 121.396091 
L 188.870306 120.901909 
L 189.60131 119.79 
L 190.697817 119.295818 
L 191.24607 118.678091 
L 191.977074 118.307455 
L 193.073581 117.936818 
L 193.621834 117.936818 
L 194.53559 117.566182 
L 195.266594 117.566182 
L 196.180349 117.319091 
L 197.459607 117.319091 
L 197.825109 116.083636 
L 199.65262 116.083636 
L 200.566376 115.713 
L 202.028384 114.724636 
L 202.94214 114.601091 
L 204.404148 114.106909 
L 205.317904 113.983364 
L 206.048908 113.242091 
L 209.70393 112.995 
L 210.252183 112.747909 
L 211.34869 112.747909 
L 212.445197 112.500818 
L 213.541703 111.759545 
L 214.63821 111.759545 
L 215.003712 111.265364 
L 215.917467 111.265364 
L 216.648472 110.400545 
L 217.562227 110.153455 
L 218.658734 109.165091 
L 220.486245 108.423818 
L 221.765502 108.053182 
L 222.496507 107.559 
L 223.227511 106.076455 
L 223.775764 106.076455 
L 225.055022 105.582273 
L 225.786026 105.582273 
L 226.882533 105.211636 
L 228.344541 104.346818 
L 228.892795 103.729091 
L 229.80655 103.605545 
L 230.354803 103.234909 
L 232.365066 103.111364 
L 232.913319 101.752364 
L 234.558079 100.146273 
L 235.837336 99.899182 
L 236.568341 99.405 
L 237.847598 99.157909 
L 238.2131 98.540182 
L 238.761354 98.416636 
L 239.492358 97.798909 
L 240.040611 97.304727 
L 240.406114 97.304727 
L 241.50262 97.057636 
L 242.781878 97.057636 
L 243.14738 96.316364 
L 244.426638 96.192818 
L 245.157642 95.822182 
L 245.157642 95.451545 
L 245.705895 95.328 
L 246.4369 95.328 
L 247.167904 95.204455 
L 248.081659 94.833818 
L 248.447162 94.463182 
L 248.995415 94.216091 
L 250.274672 94.216091 
L 250.640175 94.092545 
L 251.188428 93.351273 
L 252.467686 92.733545 
L 253.015939 92.733545 
L 253.381441 92.486455 
L 253.746943 92.486455 
L 255.208952 91.868727 
L 256.305459 91.127455 
L 257.401965 90.633273 
L 259.046725 90.386182 
L 259.412227 90.015545 
L 260.143231 89.892 
L 261.422489 89.150727 
L 262.336245 89.150727 
L 263.25 88.780091 
L 263.798253 88.780091 
L 264.163755 88.656545 
L 264.163755 88.533 
L 267.087773 88.533 
L 267.453275 88.409455 
L 269.646288 87.791727 
L 270.377293 87.791727 
L 270.925546 87.297545 
L 271.473799 87.297545 
L 271.839301 86.803364 
L 273.30131 86.803364 
L 276.408079 86.185636 
L 276.773581 86.062091 
L 277.870087 85.567909 
L 278.601092 84.703091 
L 278.966594 84.579545 
L 278.966594 84.456 
L 279.697598 84.085364 
L 281.342358 83.344091 
L 281.890611 82.973455 
L 282.438865 81.738 
L 284.449127 81.490909 
L 285.180131 81.243818 
L 286.459389 81.120273 
L 286.64214 81.120273 
L 287.190393 80.749636 
L 287.738646 80.749636 
L 287.921397 80.502545 
L 288.104148 80.502545 
L 289.931659 79.637727 
L 290.297162 79.514182 
L 290.845415 78.896455 
L 292.307424 78.525818 
L 293.952183 78.525818 
L 294.317686 77.908091 
L 294.683188 77.784545 
L 295.596943 77.784545 
L 295.596943 77.661 
L 295.779694 77.166818 
L 296.327948 77.043273 
L 297.789956 77.043273 
L 298.703712 76.919727 
L 299.434716 76.054909 
L 299.800218 75.807818 
L 300.896725 75.807818 
L 301.444978 75.560727 
L 301.993231 75.066545 
L 302.906987 74.819455 
L 304.734498 74.572364 
L 305.282751 74.078182 
L 306.196507 74.078182 
L 306.196507 73.707545 
L 306.562009 73.584 
L 307.658515 72.966273 
L 308.206769 72.966273 
L 308.572271 72.719182 
L 309.120524 72.719182 
L 309.303275 72.595636 
L 309.486026 72.225 
L 309.668777 72.225 
L 310.034279 72.101455 
L 310.217031 71.730818 
L 311.313537 71.730818 
L 311.496288 71.607273 
L 312.227293 71.483727 
L 312.410044 71.236636 
L 313.141048 70.989545 
L 313.689301 70.989545 
L 313.689301 70.866 
L 314.054803 70.742455 
L 314.603057 70.742455 
L 315.334061 70.248273 
L 315.699563 70.248273 
L 315.699563 70.124727 
L 316.065066 70.001182 
L 316.79607 70.001182 
L 316.978821 69.754091 
L 317.161572 69.754091 
L 318.075328 69.383455 
L 318.989083 69.383455 
L 318.989083 69.259909 
L 319.171834 69.012818 
L 319.720087 69.012818 
L 319.720087 68.889273 
L 320.633843 68.395091 
L 321.182096 68.395091 
L 321.730349 68.271545 
L 321.9131 68.024455 
L 323.192358 68.024455 
L 323.375109 67.777364 
L 324.471616 67.777364 
L 325.019869 67.653818 
L 325.568122 67.653818 
L 325.750873 67.530273 
L 327.761135 67.530273 
L 328.857642 67.283182 
L 338.726201 67.283182 
L 339.457205 67.036091 
L 350.23952 67.036091 
L 354.077293 66.912545 
L 366.869869 66.912545 
L 371.073144 66.665455 
L 433 66.665455 
L 433 66.665455 
" style="fill:none;stroke:#ff7f0e;stroke-linecap:square;stroke-width:2;"/>
   </g>
   <g id="line2d_26">
    <path clip-path="url(#pa0a50fe18a)" d="M 54 363.174545 
L 54 352.079574 
L 54.275873 352.079574 
L 54.275873 337.929466 
L 54.551747 334.552735 
L 54.551747 332.301582 
L 54.82762 331.497598 
L 54.82762 329.568038 
L 55.103494 329.568038 
L 55.379367 329.246444 
L 55.379367 323.940154 
L 55.655241 323.940154 
L 56.758734 323.61856 
L 56.758734 322.010594 
L 57.034608 322.010594 
L 57.310481 321.689 
L 57.310481 319.116253 
L 57.862228 318.31227 
L 57.862228 315.739523 
L 58.138102 315.257133 
L 58.138102 312.845182 
L 58.689848 312.041199 
L 58.689848 309.468452 
L 58.965722 309.468452 
L 59.241595 309.146859 
L 59.517469 307.056502 
L 59.517469 305.448535 
L 59.793342 305.448535 
L 59.793342 305.287738 
L 60.069216 304.162161 
L 60.069216 294.03197 
L 60.345089 293.710377 
L 60.345089 293.388783 
L 60.620962 293.227987 
L 61.172709 293.227987 
L 61.448583 292.5848 
L 61.448583 290.17285 
L 61.724456 289.851256 
L 62.00033 289.208069 
L 62.00033 288.725679 
L 62.552076 288.725679 
L 62.552076 287.117712 
L 63.379697 284.866559 
L 63.931444 284.866559 
L 63.931444 282.133015 
L 64.207317 280.364252 
L 64.483191 280.364252 
L 64.759064 279.881862 
L 65.034937 279.881862 
L 65.034937 279.077878 
L 65.310811 277.630708 
L 65.586684 276.826725 
L 65.862558 276.505131 
L 65.862558 276.183538 
L 66.414305 276.183538 
L 66.414305 274.897164 
L 66.690178 273.771587 
L 67.241925 273.771587 
L 67.241925 270.23406 
L 68.621292 269.912467 
L 68.621292 269.75167 
L 68.897165 268.947687 
L 69.448912 268.947687 
L 69.448912 266.535737 
L 70.276533 266.535737 
L 70.552406 265.89255 
L 70.552406 265.088566 
L 70.828279 264.92777 
L 71.104153 264.606176 
L 71.104153 263.641396 
L 71.380026 263.641396 
L 71.380026 263.480599 
L 71.6559 263.480599 
L 71.6559 263.319803 
L 71.931773 260.907852 
L 72.207647 260.425462 
L 72.207647 258.335106 
L 72.48352 257.531122 
L 72.48352 256.887935 
L 73.035267 256.083952 
L 73.31114 255.440765 
L 73.862887 255.440765 
L 73.862887 253.350408 
L 74.414634 252.224831 
L 74.690508 252.064035 
L 74.966381 250.777661 
L 75.242254 250.456068 
L 75.518128 250.456068 
L 75.518128 250.134474 
L 75.794001 248.204914 
L 76.621622 247.240134 
L 76.621622 245.632167 
L 76.897495 245.310574 
L 77.173368 245.310574 
L 77.173368 242.898624 
L 78.000989 242.09464 
L 78.552736 242.09464 
L 79.104483 241.61225 
L 79.104483 241.290657 
L 79.380356 241.12986 
L 79.932103 240.969063 
L 80.207976 240.64747 
L 80.48385 240.64747 
L 80.759723 240.325877 
L 80.759723 238.71791 
L 81.587343 236.145163 
L 81.863217 234.697993 
L 82.414964 234.054806 
L 82.690837 233.090026 
L 83.242584 232.607636 
L 84.346078 232.286042 
L 84.346078 231.803652 
L 84.621951 231.642855 
L 85.725445 231.321262 
L 86.553065 230.517279 
L 87.932432 229.713295 
L 89.035926 229.713295 
L 89.587673 229.070108 
L 89.863546 228.266125 
L 90.415293 228.266125 
L 90.691167 228.105328 
L 91.518787 226.818955 
L 92.070534 225.532581 
L 92.070534 225.210988 
L 92.622281 223.603021 
L 92.898154 223.281428 
L 93.449901 223.281428 
L 94.001648 222.959834 
L 94.829268 221.030274 
L 94.829268 220.387087 
L 95.105142 220.387087 
L 95.381015 219.904697 
L 95.381015 215.88478 
L 97.588003 213.47283 
L 97.588003 212.99044 
L 98.13975 210.256896 
L 98.691496 210.096099 
L 98.96737 209.774506 
L 99.243243 209.131319 
L 99.243243 208.648929 
L 100.070864 207.684149 
L 100.346737 207.040962 
L 100.898484 205.111402 
L 101.450231 204.307419 
L 102.277851 203.825029 
L 102.829598 203.181842 
L 103.105471 201.895468 
L 103.657218 201.734672 
L 103.657218 201.573875 
L 104.484838 201.573875 
L 104.760712 201.413078 
L 104.760712 200.769892 
L 105.312459 199.965908 
L 105.588332 199.805111 
L 106.140079 199.805111 
L 106.691826 199.644315 
L 106.691826 198.518738 
L 107.243573 198.197145 
L 108.62294 197.071568 
L 109.174687 196.106788 
L 110.278181 194.981211 
L 111.105801 193.855634 
L 112.209295 192.730057 
L 113.036915 191.12209 
L 113.036915 189.996514 
L 113.588662 189.353327 
L 114.416282 188.71014 
L 115.243902 187.584563 
L 116.071523 186.941376 
L 116.899143 184.368629 
L 116.899143 183.886239 
L 117.175016 183.403849 
L 118.002637 183.082256 
L 118.830257 182.439069 
L 119.382004 181.474289 
L 119.933751 181.474289 
L 120.209624 180.991899 
L 121.037245 180.509509 
L 121.313118 180.509509 
L 121.864865 180.187916 
L 122.416612 179.705526 
L 124.071852 179.062339 
L 125.45122 179.062339 
L 126.002966 178.740745 
L 126.27884 178.419152 
L 126.27884 177.936762 
L 126.830587 177.936762 
L 128.209954 177.293575 
L 129.037574 177.293575 
L 130.141068 176.971982 
L 130.141068 176.328795 
L 131.520435 175.524812 
L 132.623929 175.524812 
L 133.175676 175.364015 
L 134.555043 175.203218 
L 135.10679 174.881625 
L 135.10679 174.238438 
L 137.037904 173.916845 
L 138.141397 173.273658 
L 138.693144 173.273658 
L 138.969018 172.791268 
L 139.520765 172.791268 
L 140.348385 171.665691 
L 141.451879 170.700911 
L 142.003626 170.700911 
L 142.003626 170.379318 
L 142.279499 169.736131 
L 142.279499 169.253741 
L 142.831246 168.449757 
L 143.107119 168.288961 
L 143.93474 167.324181 
L 144.76236 167.163384 
L 145.865854 166.520197 
L 146.141727 165.39462 
L 146.417601 165.39462 
L 146.693474 164.590637 
L 147.245221 163.786654 
L 148.900461 163.46506 
L 150.555702 161.696297 
L 150.831575 160.249126 
L 150.831575 159.60594 
L 152.210943 159.12355 
L 153.59031 157.997973 
L 154.142057 157.997973 
L 154.969677 157.837176 
L 155.24555 157.354786 
L 155.797297 157.193989 
L 156.900791 156.550803 
L 157.452538 155.746819 
L 159.383652 155.746819 
L 159.659525 155.586022 
L 160.763019 155.425226 
L 161.590639 155.103632 
L 161.866513 154.621242 
L 162.41826 154.621242 
L 162.694133 154.460446 
L 163.24588 154.460446 
L 163.24588 154.138852 
L 163.797627 154.138852 
L 166.004614 153.817259 
L 166.004614 152.691682 
L 166.556361 152.370089 
L 166.832235 151.566105 
L 168.487475 150.762122 
L 169.039222 149.797342 
L 169.590969 149.314952 
L 171.24621 148.993358 
L 171.522083 148.350172 
L 172.349703 148.350172 
L 173.453197 148.028578 
L 175.936058 146.903001 
L 176.211931 146.420611 
L 177.867172 145.777425 
L 178.694792 145.777425 
L 179.246539 145.295035 
L 179.798286 143.687068 
L 180.07416 143.365474 
L 180.90178 143.043881 
L 181.453527 143.043881 
L 182.55702 142.400694 
L 183.108767 142.239897 
L 184.212261 140.631931 
L 184.488134 140.631931 
L 184.764008 140.149541 
L 185.591628 139.506354 
L 185.867502 139.506354 
L 186.419249 138.059184 
L 187.522742 137.73759 
L 188.074489 136.933607 
L 188.902109 136.29042 
L 190.833223 136.29042 
L 191.109097 136.129623 
L 191.936717 136.129623 
L 192.764338 135.647233 
L 192.764338 135.164843 
L 193.040211 134.84325 
L 194.419578 134.521656 
L 195.247198 133.717673 
L 195.247198 132.752893 
L 196.902439 132.592096 
L 198.281806 131.466519 
L 199.3853 131.305723 
L 199.661173 131.144926 
L 200.21292 130.501739 
L 201.040541 130.340943 
L 201.316414 129.858553 
L 201.868161 128.089789 
L 202.971655 128.089789 
L 203.523401 127.768196 
L 204.351022 127.607399 
L 204.626895 127.285806 
L 205.178642 126.964212 
L 208.21325 126.964212 
L 209.04087 126.321025 
L 209.316744 126.321025 
L 209.592617 125.999432 
L 210.420237 125.517042 
L 210.971984 125.517042 
L 211.523731 124.230669 
L 213.730719 121.497125 
L 214.834212 121.175531 
L 215.661833 120.371548 
L 215.661833 119.728361 
L 216.213579 119.728361 
L 217.592947 119.085175 
L 218.972314 118.441988 
L 218.972314 118.120394 
L 220.075808 117.959598 
L 220.627554 117.477208 
L 222.006922 117.316411 
L 223.110415 117.316411 
L 225.041529 116.994818 
L 225.041529 116.351631 
L 226.145023 116.351631 
L 227.52439 115.869241 
L 229.179631 114.582867 
L 232.765985 113.618087 
L 233.317732 112.9749 
L 235.248846 112.331714 
L 235.800593 111.849324 
L 236.904087 110.241357 
L 238.007581 109.919763 
L 238.559328 109.919763 
L 239.386948 109.758967 
L 239.386948 109.59817 
L 239.938695 109.276577 
L 239.938695 108.311796 
L 241.042189 107.347016 
L 241.318062 106.864626 
L 241.593935 106.70383 
L 242.421556 106.70383 
L 243.249176 106.22144 
L 243.525049 105.578253 
L 243.800923 105.417456 
L 244.076796 104.935066 
L 244.904417 104.774269 
L 245.732037 104.452676 
L 246.559657 104.291879 
L 246.559657 104.131083 
L 247.939024 104.131083 
L 249.042518 103.487896 
L 249.594265 102.683912 
L 250.421885 102.683912 
L 250.973632 102.040726 
L 252.628873 101.075946 
L 253.18062 100.593556 
L 254.559987 99.789572 
L 256.491101 99.146385 
L 257.318721 98.824792 
L 258.146341 98.020809 
L 259.249835 97.699215 
L 260.353329 97.699215 
L 261.732696 97.377622 
L 262.560316 96.573638 
L 263.66381 96.412842 
L 263.939684 95.769655 
L 264.767304 94.965671 
L 265.319051 94.965671 
L 265.594924 94.644078 
L 267.250165 94.644078 
L 268.077785 94.161688 
L 268.629532 94.161688 
L 269.733026 93.357705 
L 270.560646 93.036111 
L 271.66414 92.875315 
L 273.043507 92.392924 
L 273.871127 92.392924 
L 274.422874 91.910534 
L 275.250494 91.749738 
L 275.250494 91.267348 
L 276.629862 91.106551 
L 276.905735 90.945754 
L 279.388596 90.302568 
L 281.043837 90.302568 
L 282.423204 88.855397 
L 282.974951 88.855397 
L 283.526697 88.533804 
L 284.630191 88.373007 
L 284.906065 87.890617 
L 285.181938 87.890617 
L 285.181938 87.24743 
L 285.457811 87.24743 
L 285.733685 87.086634 
L 286.561305 87.086634 
L 286.837179 86.925837 
L 288.216546 86.925837 
L 289.044166 86.76504 
L 289.044166 86.28265 
L 289.871786 86.28265 
L 290.423533 86.121854 
L 290.97528 85.478667 
L 290.97528 85.157074 
L 291.251154 84.513887 
L 292.906394 84.513887 
L 293.458141 84.35309 
L 293.458141 84.192293 
L 294.009888 84.192293 
L 294.285761 83.709903 
L 296.216875 83.709903 
L 296.492749 83.549107 
L 299.251483 82.90592 
L 299.251483 82.745123 
L 299.527357 82.745123 
L 299.80323 82.584327 
L 300.354977 82.584327 
L 300.354977 82.262733 
L 300.906724 82.262733 
L 301.182597 82.101937 
L 302.286091 82.101937 
L 302.286091 81.94114 
L 302.561964 81.780343 
L 302.561964 81.619546 
L 302.837838 81.619546 
L 303.113711 81.45875 
L 303.389585 81.45875 
L 303.665458 80.97636 
L 303.941332 80.97636 
L 304.217205 80.654766 
L 304.493078 80.654766 
L 305.320699 80.172376 
L 305.596572 79.689986 
L 306.424192 79.368393 
L 307.251813 78.564409 
L 307.527686 78.564409 
L 308.079433 78.242816 
L 308.079433 78.082019 
L 308.907053 77.921223 
L 308.907053 77.438833 
L 309.4588 77.278036 
L 309.4588 76.313256 
L 310.562294 76.152459 
L 310.562294 75.187679 
L 310.838167 75.026882 
L 311.941661 75.026882 
L 311.941661 74.383696 
L 312.217535 74.222899 
L 312.493408 74.222899 
L 313.045155 73.418915 
L 313.872775 72.936525 
L 315.252142 72.614932 
L 315.528016 72.454135 
L 316.079763 71.489355 
L 316.63151 71.489355 
L 317.183256 71.328558 
L 317.735003 71.006965 
L 318.838497 70.846168 
L 318.838497 70.363778 
L 319.390244 70.042185 
L 319.390244 69.881388 
L 319.941991 69.881388 
L 321.045485 69.720592 
L 321.597231 69.720592 
L 321.597231 69.559795 
L 322.148978 69.559795 
L 322.148978 69.398998 
L 323.804219 69.398998 
L 323.804219 69.238202 
L 324.080092 69.238202 
L 324.355966 69.077405 
L 324.631839 69.077405 
L 324.631839 68.916608 
L 325.459459 68.916608 
L 325.735333 68.434218 
L 326.562953 68.434218 
L 326.562953 68.273421 
L 328.218194 68.273421 
L 328.218194 68.112625 
L 330.976928 68.112625 
L 331.528675 67.791031 
L 335.666777 67.791031 
L 335.666777 67.469438 
L 346.977587 67.469438 
L 348.081081 67.147845 
L 359.116018 67.147845 
L 362.702373 66.826251 
L 383.117007 66.826251 
L 393.876071 66.665455 
L 433 66.665455 
L 433 66.665455 
" style="fill:none;stroke:#2ca02c;stroke-dasharray:12.8,3.2,2,3.2;stroke-dashoffset:0;stroke-width:2;"/>
   </g>
   <g id="patch_3">
    <path d="M 54 378 
L 54 51.84 
" style="fill:none;stroke:#000000;stroke-linecap:square;stroke-linejoin:miter;stroke-width:0.8;"/>
   </g>
   <g id="patch_4">
    <path d="M 388.8 378 
L 388.8 51.84 
" style="fill:none;stroke:#000000;stroke-linecap:square;stroke-linejoin:miter;stroke-width:0.8;"/>
   </g>
   <g id="patch_5">
    <path d="M 54 378 
L 388.8 378 
" style="fill:none;stroke:#000000;stroke-linecap:square;stroke-linejoin:miter;stroke-width:0.8;"/>
   </g>
   <g id="patch_6">
    <path d="M 54 51.84 
L 388.8 51.84 
" style="fill:none;stroke:#000000;stroke-linecap:square;stroke-linejoin:miter;stroke-width:0.8;"/>
   </g>
   <g id="text_14">
    <!-- Receiver Operating Characteristic -->
    <g transform="translate(96.326625 45.84)scale(0.168 -0.168)">
     <defs>
      <path d="M 1650 -81 
Q 981 -81 603 362 
Q 225 806 225 1553 
Q 225 1878 326 2161 
Q 428 2444 622 2675 
Q 806 2897 1084 3033 
Q 1363 3169 1691 3169 
Q 2144 3169 2428 2951 
Q 2713 2734 2713 2359 
Q 2713 2203 2638 2083 
Q 2563 1963 2391 1963 
Q 2206 1963 2104 2056 
Q 2003 2150 2003 2266 
Q 2003 2406 2040 2554 
Q 2078 2703 2084 2772 
Q 2028 2869 1917 2901 
Q 1806 2934 1678 2934 
Q 1528 2934 1392 2870 
Q 1256 2806 1128 2634 
Q 1013 2478 941 2212 
Q 869 1947 869 1578 
Q 869 997 1126 630 
Q 1384 263 1803 263 
Q 2106 263 2311 409 
Q 2516 556 2691 850 
L 2891 719 
Q 2684 350 2346 134 
Q 2009 -81 1650 -81 
z
" id="Georgia-63" transform="scale(0.015625)"/>
      <path d="M 3888 3909 
Q 4181 3603 4347 3170 
Q 4513 2738 4513 2213 
Q 4513 1684 4344 1253 
Q 4175 822 3875 519 
Q 3584 219 3200 56 
Q 2816 -106 2381 -106 
Q 1919 -106 1526 67 
Q 1134 241 853 550 
Q 572 853 411 1286 
Q 250 1719 250 2213 
Q 250 2753 419 3176 
Q 588 3600 884 3909 
Q 1178 4216 1567 4378 
Q 1956 4541 2381 4541 
Q 2822 4541 3212 4375 
Q 3603 4209 3888 3909 
z
M 3422 766 
Q 3597 1050 3676 1409 
Q 3756 1769 3756 2213 
Q 3756 2669 3667 3050 
Q 3578 3431 3406 3700 
Q 3234 3966 2975 4114 
Q 2716 4263 2381 4263 
Q 2006 4263 1743 4091 
Q 1481 3919 1316 3631 
Q 1159 3356 1082 2987 
Q 1006 2619 1006 2213 
Q 1006 1763 1087 1400 
Q 1169 1038 1344 756 
Q 1513 481 1769 326 
Q 2025 172 2381 172 
Q 2716 172 2984 328 
Q 3253 484 3422 766 
z
" id="Georgia-4f" transform="scale(0.015625)"/>
      <path d="M 3041 2716 
Q 3225 2497 3326 2208 
Q 3428 1919 3428 1547 
Q 3428 1181 3306 879 
Q 3184 578 2984 366 
Q 2775 150 2519 34 
Q 2263 -81 1975 -81 
Q 1697 -81 1519 -18 
Q 1341 44 1228 128 
L 1203 128 
L 1203 -797 
Q 1203 -909 1247 -984 
Q 1291 -1059 1381 -1094 
Q 1456 -1122 1595 -1148 
Q 1734 -1175 1825 -1178 
L 1825 -1388 
L 103 -1388 
L 103 -1178 
Q 200 -1172 290 -1162 
Q 381 -1153 453 -1131 
Q 547 -1100 584 -1022 
Q 622 -944 622 -838 
L 622 2441 
Q 622 2534 575 2621 
Q 528 2709 453 2763 
Q 397 2800 297 2820 
Q 197 2841 103 2847 
L 103 3050 
L 1153 3119 
L 1197 3081 
L 1197 2734 
L 1222 2728 
Q 1384 2916 1625 3041 
Q 1866 3166 2103 3166 
Q 2391 3166 2630 3044 
Q 2869 2922 3041 2716 
z
M 2531 500 
Q 2656 694 2715 950 
Q 2775 1206 2775 1522 
Q 2775 1753 2725 1993 
Q 2675 2234 2569 2413 
Q 2463 2594 2291 2706 
Q 2119 2819 1878 2819 
Q 1647 2819 1484 2717 
Q 1322 2616 1203 2475 
L 1203 653 
Q 1231 569 1295 478 
Q 1359 388 1438 322 
Q 1534 244 1646 195 
Q 1759 147 1922 147 
Q 2097 147 2259 239 
Q 2422 331 2531 500 
z
" id="Georgia-70" transform="scale(0.015625)"/>
      <path d="M 3628 0 
L 2119 0 
L 2119 206 
Q 2191 213 2277 219 
Q 2363 225 2419 244 
Q 2506 272 2548 342 
Q 2591 413 2591 525 
L 2591 2109 
Q 2591 2438 2436 2616 
Q 2281 2794 2059 2794 
Q 1894 2794 1756 2742 
Q 1619 2691 1513 2616 
Q 1409 2544 1348 2461 
Q 1288 2378 1259 2328 
L 1259 556 
Q 1259 450 1303 381 
Q 1347 313 1434 275 
Q 1500 244 1576 228 
Q 1653 213 1734 206 
L 1734 0 
L 225 0 
L 225 206 
Q 297 213 373 219 
Q 450 225 506 244 
Q 594 272 636 342 
Q 678 413 678 525 
L 678 2428 
Q 678 2534 633 2623 
Q 588 2713 506 2769 
Q 447 2806 365 2823 
Q 284 2841 191 2847 
L 191 3050 
L 1216 3119 
L 1259 3075 
L 1259 2641 
L 1275 2641 
Q 1350 2716 1462 2820 
Q 1575 2925 1675 2991 
Q 1791 3066 1950 3116 
Q 2109 3166 2309 3166 
Q 2753 3166 2967 2889 
Q 3181 2613 3181 2153 
L 3181 550 
Q 3181 441 3218 373 
Q 3256 306 3347 269 
Q 3422 238 3476 225 
Q 3531 213 3628 206 
L 3628 0 
z
" id="Georgia-6e" transform="scale(0.015625)"/>
      <path d="M 2866 319 
Q 2991 200 3062 50 
Q 3134 -100 3134 -322 
Q 3134 -544 3037 -739 
Q 2941 -934 2744 -1078 
Q 2534 -1225 2243 -1306 
Q 1953 -1388 1525 -1388 
Q 825 -1388 478 -1183 
Q 131 -978 131 -584 
Q 131 -266 381 -81 
Q 631 103 1019 119 
L 1019 163 
Q 925 191 825 233 
Q 725 275 653 331 
Q 572 397 522 486 
Q 472 575 472 706 
Q 472 872 589 1011 
Q 706 1150 944 1250 
L 944 1297 
Q 644 1438 478 1658 
Q 313 1878 313 2169 
Q 313 2606 639 2887 
Q 966 3169 1475 3169 
Q 1616 3169 1755 3141 
Q 1894 3113 2038 3069 
L 3113 3069 
L 3113 2769 
L 2388 2769 
L 2388 2750 
Q 2503 2616 2559 2453 
Q 2616 2291 2616 2134 
Q 2616 1728 2286 1447 
Q 1956 1166 1519 1166 
L 1141 1166 
Q 1069 1141 991 1075 
Q 913 1009 913 897 
Q 913 781 978 720 
Q 1044 659 1138 638 
Q 1228 613 1348 606 
Q 1469 600 1597 597 
Q 1734 594 1973 578 
Q 2213 563 2313 559 
Q 2456 553 2601 490 
Q 2747 428 2866 319 
z
M 2022 2147 
Q 2022 2513 1873 2730 
Q 1725 2947 1456 2947 
Q 1309 2947 1204 2886 
Q 1100 2825 1034 2713 
Q 972 2609 945 2464 
Q 919 2319 919 2166 
Q 919 1819 1070 1600 
Q 1222 1381 1463 1381 
Q 1731 1381 1876 1598 
Q 2022 1816 2022 2147 
z
M 2622 -438 
Q 2622 -263 2540 -150 
Q 2459 -38 2294 3 
Q 2206 16 1934 31 
Q 1663 47 1303 47 
Q 966 -19 823 -173 
Q 681 -328 681 -572 
Q 681 -681 728 -781 
Q 775 -881 891 -966 
Q 1000 -1047 1184 -1098 
Q 1369 -1150 1634 -1150 
Q 2094 -1150 2358 -973 
Q 2622 -797 2622 -438 
z
" id="Georgia-67" transform="scale(0.015625)"/>
      <path d="M 2259 -103 
Q 1863 -103 1498 53 
Q 1134 209 853 503 
Q 575 797 409 1220 
Q 244 1644 244 2175 
Q 244 2706 406 3139 
Q 569 3572 856 3884 
Q 1141 4194 1528 4362 
Q 1916 4531 2356 4531 
Q 2684 4531 2950 4450 
Q 3216 4369 3456 4222 
L 3584 4434 
L 3834 4434 
L 3863 2853 
L 3606 2853 
Q 3556 3084 3456 3354 
Q 3356 3625 3222 3813 
Q 3072 4025 2865 4145 
Q 2659 4266 2394 4266 
Q 2091 4266 1830 4131 
Q 1569 3997 1378 3734 
Q 1197 3481 1094 3090 
Q 991 2700 991 2219 
Q 991 1794 1098 1439 
Q 1206 1084 1406 816 
Q 1606 550 1879 400 
Q 2153 250 2491 250 
Q 2744 250 2956 329 
Q 3169 409 3325 541 
Q 3481 678 3600 853 
Q 3719 1028 3794 1234 
L 4028 1122 
Q 3759 463 3315 180 
Q 2872 -103 2259 -103 
z
" id="Georgia-43" transform="scale(0.015625)"/>
      <path d="M 3572 0 
L 2059 0 
L 2059 206 
Q 2131 213 2218 219 
Q 2306 225 2363 244 
Q 2450 272 2492 342 
Q 2534 413 2534 525 
L 2534 2109 
Q 2534 2438 2379 2616 
Q 2225 2794 2003 2794 
Q 1841 2794 1702 2742 
Q 1563 2691 1453 2616 
Q 1347 2538 1290 2459 
Q 1234 2381 1203 2328 
L 1203 556 
Q 1203 450 1245 381 
Q 1288 313 1375 275 
Q 1444 244 1517 228 
Q 1591 213 1678 206 
L 1678 0 
L 166 0 
L 166 206 
Q 238 213 316 220 
Q 394 228 447 244 
Q 534 272 578 342 
Q 622 413 622 525 
L 622 4113 
Q 622 4219 573 4325 
Q 525 4431 447 4484 
Q 391 4525 248 4542 
Q 106 4559 19 4566 
L 19 4766 
L 1159 4838 
L 1203 4791 
L 1203 2641 
L 1216 2641 
Q 1319 2744 1403 2823 
Q 1488 2903 1625 2991 
Q 1744 3066 1905 3116 
Q 2066 3166 2266 3166 
Q 2678 3166 2900 2905 
Q 3122 2644 3122 2153 
L 3122 550 
Q 3122 441 3161 373 
Q 3200 306 3291 269 
Q 3363 241 3420 227 
Q 3478 213 3572 206 
L 3572 0 
z
" id="Georgia-68" transform="scale(0.015625)"/>
     </defs>
     <use xlink:href="#Georgia-52"/>
     <use x="70.166016" xlink:href="#Georgia-65"/>
     <use x="118.505859" xlink:href="#Georgia-63"/>
     <use x="163.916016" xlink:href="#Georgia-65"/>
     <use x="212.255859" xlink:href="#Georgia-69"/>
     <use x="241.552734" xlink:href="#Georgia-76"/>
     <use x="291.210938" xlink:href="#Georgia-65"/>
     <use x="339.550781" xlink:href="#Georgia-72"/>
     <use x="380.517578" xlink:href="#Georgia-20"/>
     <use x="404.638672" xlink:href="#Georgia-4f"/>
     <use x="479.052734" xlink:href="#Georgia-70"/>
     <use x="536.181641" xlink:href="#Georgia-65"/>
     <use x="584.521484" xlink:href="#Georgia-72"/>
     <use x="625.488281" xlink:href="#Georgia-61"/>
     <use x="675.878906" xlink:href="#Georgia-74"/>
     <use x="710.400391" xlink:href="#Georgia-69"/>
     <use x="739.697266" xlink:href="#Georgia-6e"/>
     <use x="798.779297" xlink:href="#Georgia-67"/>
     <use x="849.707031" xlink:href="#Georgia-20"/>
     <use x="873.828125" xlink:href="#Georgia-43"/>
     <use x="938.037109" xlink:href="#Georgia-68"/>
     <use x="996.240234" xlink:href="#Georgia-61"/>
     <use x="1046.630859" xlink:href="#Georgia-72"/>
     <use x="1087.597656" xlink:href="#Georgia-61"/>
     <use x="1137.988281" xlink:href="#Georgia-63"/>
     <use x="1183.398438" xlink:href="#Georgia-74"/>
     <use x="1217.919922" xlink:href="#Georgia-65"/>
     <use x="1266.259766" xlink:href="#Georgia-72"/>
     <use x="1307.226562" xlink:href="#Georgia-69"/>
     <use x="1336.523438" xlink:href="#Georgia-73"/>
     <use x="1379.736328" xlink:href="#Georgia-74"/>
     <use x="1414.257812" xlink:href="#Georgia-69"/>
     <use x="1443.554688" xlink:href="#Georgia-63"/>
    </g>
   </g>
   <g id="legend_1">
    <g id="patch_7">
     <path d="M 174.81 371 
L 379 371 
Q 381.8 371 381.8 368.2 
L 381.8 287.1225 
Q 381.8 284.3225 379 284.3225 
L 174.81 284.3225 
Q 172.01 284.3225 172.01 287.1225 
L 172.01 368.2 
Q 172.01 371 174.81 371 
z
" style="fill:#ffffff;opacity:0.8;stroke:#cccccc;stroke-linejoin:miter;"/>
    </g>
    <g id="line2d_27">
     <path d="M 177.61 295.605625 
L 205.61 295.605625 
" style="fill:none;stroke:#1f77b4;stroke-dasharray:2,3.3;stroke-dashoffset:0;stroke-width:2;"/>
    </g>
    <g id="line2d_28"/>
    <g id="text_15">
     <!-- Full dataset, AUC=0.87 -->
     <g transform="translate(216.81 300.505625)scale(0.14 -0.14)">
      <defs>
       <path d="M 3600 56 
L 2525 -13 
L 2478 31 
L 2478 319 
L 2453 325 
Q 2291 144 2052 28 
Q 1813 -88 1559 -88 
Q 1297 -88 1051 29 
Q 806 147 625 359 
Q 441 575 333 878 
Q 225 1181 225 1547 
Q 225 1881 340 2181 
Q 456 2481 659 2706 
Q 850 2916 1126 3041 
Q 1403 3166 1691 3166 
Q 1906 3166 2114 3111 
Q 2322 3056 2472 2972 
L 2472 4044 
Q 2472 4175 2428 4283 
Q 2384 4391 2306 4447 
Q 2219 4506 2070 4532 
Q 1922 4559 1750 4572 
L 1750 4766 
L 3009 4838 
L 3056 4791 
L 3056 634 
Q 3056 525 3098 448 
Q 3141 372 3222 319 
Q 3281 281 3393 272 
Q 3506 263 3600 259 
L 3600 56 
z
M 2472 597 
L 2472 2400 
Q 2447 2481 2390 2575 
Q 2334 2669 2250 2747 
Q 2159 2825 2037 2876 
Q 1916 2928 1753 2928 
Q 1566 2928 1408 2831 
Q 1250 2734 1128 2553 
Q 1013 2378 945 2108 
Q 878 1838 878 1509 
Q 878 1247 928 1033 
Q 978 819 1097 634 
Q 1206 459 1376 353 
Q 1547 247 1781 247 
Q 2031 247 2195 356 
Q 2359 466 2472 597 
z
" id="Georgia-64" transform="scale(0.015625)"/>
       <path d="M 1341 109 
Q 1341 -116 1239 -316 
Q 1138 -516 1006 -659 
Q 872 -809 722 -925 
Q 572 -1041 447 -1106 
L 303 -897 
Q 453 -803 572 -709 
Q 691 -616 766 -522 
Q 859 -413 925 -284 
Q 991 -156 1009 6 
L 850 6 
Q 641 6 523 115 
Q 406 225 406 409 
Q 406 541 512 664 
Q 619 788 803 788 
Q 1072 788 1206 608 
Q 1341 428 1341 109 
z
" id="Georgia-2c" transform="scale(0.015625)"/>
       <path d="M 4441 0 
L 2594 0 
L 2594 222 
Q 2838 238 2998 284 
Q 3159 331 3159 400 
Q 3159 428 3153 468 
Q 3147 509 3134 541 
L 2766 1534 
L 1213 1534 
Q 1125 1316 1070 1153 
Q 1016 991 972 853 
Q 931 719 915 634 
Q 900 550 900 497 
Q 900 372 1097 303 
Q 1294 234 1541 222 
L 1541 0 
L -128 0 
L -128 222 
Q -47 228 75 258 
Q 197 288 275 338 
Q 400 422 469 514 
Q 538 606 603 769 
Q 938 1603 1341 2643 
Q 1744 3684 2059 4497 
L 2309 4497 
L 3788 672 
Q 3834 550 3893 475 
Q 3953 400 4059 328 
Q 4131 284 4247 254 
Q 4363 225 4441 222 
L 4441 0 
z
M 2653 1813 
L 1981 3531 
L 1322 1813 
L 2653 1813 
z
" id="Georgia-41" transform="scale(0.015625)"/>
       <path d="M 4791 4213 
Q 4703 4209 4534 4175 
Q 4366 4141 4259 4072 
Q 4153 4000 4112 3775 
Q 4072 3550 4072 3225 
L 4072 1297 
Q 4072 928 3919 656 
Q 3766 384 3516 209 
Q 3269 41 2995 -32 
Q 2722 -106 2472 -106 
Q 2072 -106 1759 -1 
Q 1447 103 1234 281 
Q 1025 459 919 689 
Q 813 919 813 1169 
L 813 3791 
Q 813 3900 777 3973 
Q 741 4047 631 4109 
Q 553 4153 431 4179 
Q 309 4206 231 4213 
L 231 4434 
L 2078 4434 
L 2078 4213 
Q 1991 4209 1858 4184 
Q 1725 4159 1663 4138 
Q 1556 4100 1520 4012 
Q 1484 3925 1484 3822 
L 1484 1372 
Q 1484 1194 1523 998 
Q 1563 803 1678 634 
Q 1800 463 2009 353 
Q 2219 244 2584 244 
Q 2928 244 3161 353 
Q 3394 463 3528 641 
Q 3656 809 3709 993 
Q 3763 1178 3763 1366 
L 3763 3184 
Q 3763 3531 3713 3751 
Q 3663 3972 3566 4041 
Q 3456 4119 3267 4162 
Q 3078 4206 2978 4213 
L 2978 4434 
L 4791 4434 
L 4791 4213 
z
" id="Georgia-55" transform="scale(0.015625)"/>
       <path d="M 3634 2134 
L 481 2134 
L 481 2525 
L 3634 2525 
L 3634 2134 
z
M 3634 972 
L 481 972 
L 481 1363 
L 3634 1363 
L 3634 972 
z
" id="Georgia-3d" transform="scale(0.015625)"/>
       <path d="M 3216 3150 
L 988 -1141 
L 597 -1141 
L 2694 2828 
L 1466 2828 
Q 1194 2828 1041 2822 
Q 888 2816 759 2763 
Q 663 2722 586 2555 
Q 509 2388 469 2128 
L 278 2128 
L 278 3353 
L 3216 3353 
L 3216 3150 
z
" id="Georgia-37" transform="scale(0.015625)"/>
      </defs>
      <use xlink:href="#Georgia-46"/>
      <use x="59.912109" xlink:href="#Georgia-75"/>
      <use x="117.431641" xlink:href="#Georgia-6c"/>
      <use x="146.044922" xlink:href="#Georgia-6c"/>
      <use x="174.658203" xlink:href="#Georgia-20"/>
      <use x="198.779297" xlink:href="#Georgia-64"/>
      <use x="256.201172" xlink:href="#Georgia-61"/>
      <use x="306.591797" xlink:href="#Georgia-74"/>
      <use x="341.113281" xlink:href="#Georgia-61"/>
      <use x="391.503906" xlink:href="#Georgia-73"/>
      <use x="434.716797" xlink:href="#Georgia-65"/>
      <use x="483.056641" xlink:href="#Georgia-74"/>
      <use x="517.578125" xlink:href="#Georgia-2c"/>
      <use x="544.53125" xlink:href="#Georgia-20"/>
      <use x="568.652344" xlink:href="#Georgia-41"/>
      <use x="635.742188" xlink:href="#Georgia-55"/>
      <use x="711.376953" xlink:href="#Georgia-43"/>
      <use x="775.585938" xlink:href="#Georgia-3d"/>
      <use x="839.892578" xlink:href="#Georgia-30"/>
      <use x="901.269531" xlink:href="#Georgia-2e"/>
      <use x="928.222656" xlink:href="#Georgia-38"/>
      <use x="987.841797" xlink:href="#Georgia-37"/>
     </g>
    </g>
    <g id="line2d_29">
     <path d="M 177.61 316.225 
L 205.61 316.225 
" style="fill:none;stroke:#ff0000;stroke-dasharray:7.4,3.2;stroke-dashoffset:0;stroke-width:2;"/>
    </g>
    <g id="line2d_30"/>
    <g id="text_16">
     <!-- 10 km dataset, AUC=0.83 -->
     <g transform="translate(216.81 321.125)scale(0.14 -0.14)">
      <defs>
       <path d="M 3491 0 
L 2559 0 
Q 2316 353 2037 756 
Q 1759 1159 1459 1541 
L 1203 1300 
L 1203 569 
Q 1203 456 1243 382 
Q 1284 309 1375 275 
Q 1450 244 1519 228 
Q 1588 213 1678 206 
L 1678 0 
L 166 0 
L 166 206 
Q 238 213 316 220 
Q 394 228 447 244 
Q 534 272 578 342 
Q 622 413 622 525 
L 622 4106 
Q 622 4222 573 4323 
Q 525 4425 447 4478 
Q 381 4528 242 4543 
Q 103 4559 19 4566 
L 19 4766 
L 1159 4838 
L 1203 4791 
L 1203 1531 
Q 1447 1775 1730 2054 
Q 2013 2334 2206 2553 
Q 2231 2581 2261 2626 
Q 2291 2672 2291 2700 
Q 2291 2784 2155 2825 
Q 2019 2866 1894 2881 
L 1894 3081 
L 3250 3081 
L 3250 2888 
Q 2988 2809 2786 2692 
Q 2584 2575 2478 2481 
Q 2403 2419 2265 2278 
Q 2128 2138 1881 1909 
Q 2138 1594 2458 1153 
Q 2778 713 2925 516 
Q 3063 331 3172 275 
Q 3281 219 3491 206 
L 3491 0 
z
" id="Georgia-6b" transform="scale(0.015625)"/>
       <path d="M 5503 0 
L 4000 0 
L 4000 206 
Q 4072 213 4145 219 
Q 4219 225 4275 244 
Q 4363 272 4405 342 
Q 4447 413 4447 525 
L 4447 2116 
Q 4447 2441 4298 2617 
Q 4150 2794 3928 2794 
Q 3775 2794 3640 2747 
Q 3506 2700 3394 2616 
Q 3303 2547 3242 2467 
Q 3181 2388 3150 2334 
L 3150 556 
Q 3150 447 3187 376 
Q 3225 306 3316 269 
Q 3388 241 3445 227 
Q 3503 213 3597 206 
L 3597 0 
L 2125 0 
L 2125 206 
Q 2197 213 2264 219 
Q 2331 225 2388 244 
Q 2475 272 2517 342 
Q 2559 413 2559 525 
L 2559 2116 
Q 2559 2441 2411 2617 
Q 2263 2794 2041 2794 
Q 1888 2794 1753 2745 
Q 1619 2697 1506 2613 
Q 1416 2544 1353 2458 
Q 1291 2372 1259 2328 
L 1259 563 
Q 1259 456 1303 384 
Q 1347 313 1434 275 
Q 1500 244 1569 228 
Q 1638 213 1722 206 
L 1722 0 
L 225 0 
L 225 206 
Q 297 213 373 219 
Q 450 225 506 244 
Q 594 272 636 342 
Q 678 413 678 525 
L 678 2441 
Q 678 2541 633 2620 
Q 588 2700 506 2756 
Q 447 2794 359 2817 
Q 272 2841 178 2847 
L 178 3050 
L 1209 3119 
L 1253 3075 
L 1253 2634 
L 1275 2634 
Q 1353 2713 1465 2819 
Q 1578 2925 1675 2991 
Q 1784 3066 1948 3116 
Q 2113 3166 2303 3166 
Q 2603 3166 2818 3005 
Q 3034 2844 3128 2616 
Q 3241 2725 3327 2808 
Q 3413 2891 3553 2984 
Q 3672 3066 3833 3116 
Q 3994 3166 4191 3166 
Q 4581 3166 4809 2909 
Q 5038 2653 5038 2122 
L 5038 556 
Q 5038 447 5075 376 
Q 5113 306 5203 269 
Q 5275 241 5345 227 
Q 5416 213 5503 206 
L 5503 0 
z
" id="Georgia-6d" transform="scale(0.015625)"/>
       <path d="M 1522 -1141 
Q 1228 -1141 984 -1067 
Q 741 -994 566 -869 
Q 391 -744 295 -581 
Q 200 -419 200 -247 
Q 200 -94 275 29 
Q 350 153 516 153 
Q 703 153 801 61 
Q 900 -31 900 -150 
Q 900 -250 867 -403 
Q 834 -556 816 -622 
Q 838 -650 895 -697 
Q 953 -744 1038 -781 
Q 1138 -828 1247 -856 
Q 1356 -884 1556 -884 
Q 1744 -884 1917 -821 
Q 2091 -759 2222 -622 
Q 2359 -478 2436 -286 
Q 2513 -94 2513 219 
Q 2513 388 2477 553 
Q 2441 719 2344 841 
Q 2247 963 2080 1030 
Q 1913 1097 1656 1097 
L 1247 1097 
L 1247 1456 
L 1519 1456 
Q 1950 1456 2140 1693 
Q 2331 1931 2331 2409 
Q 2331 2800 2147 2998 
Q 1963 3197 1625 3197 
Q 1463 3197 1358 3158 
Q 1253 3119 1188 3081 
Q 1109 3038 1059 2984 
Q 1009 2931 984 2906 
Q 1006 2806 1037 2661 
Q 1069 2516 1069 2384 
Q 1069 2269 970 2176 
Q 872 2084 681 2084 
Q 516 2084 439 2203 
Q 363 2322 363 2478 
Q 363 2641 453 2809 
Q 544 2978 722 3125 
Q 900 3272 1156 3362 
Q 1413 3453 1747 3453 
Q 2131 3453 2382 3339 
Q 2634 3225 2778 3063 
Q 2919 2903 2972 2728 
Q 3025 2553 3025 2428 
Q 3025 2272 2981 2114 
Q 2938 1956 2838 1822 
Q 2728 1675 2548 1554 
Q 2369 1434 2097 1359 
L 2097 1309 
Q 2272 1294 2470 1231 
Q 2669 1169 2828 1047 
Q 2994 919 3100 717 
Q 3206 516 3206 206 
Q 3206 -394 2725 -767 
Q 2244 -1141 1522 -1141 
z
" id="Georgia-33" transform="scale(0.015625)"/>
      </defs>
      <use xlink:href="#Georgia-31"/>
      <use x="42.96875" xlink:href="#Georgia-30"/>
      <use x="104.345703" xlink:href="#Georgia-20"/>
      <use x="128.466797" xlink:href="#Georgia-6b"/>
      <use x="182.03125" xlink:href="#Georgia-6d"/>
      <use x="270.117188" xlink:href="#Georgia-20"/>
      <use x="294.238281" xlink:href="#Georgia-64"/>
      <use x="351.660156" xlink:href="#Georgia-61"/>
      <use x="402.050781" xlink:href="#Georgia-74"/>
      <use x="436.572266" xlink:href="#Georgia-61"/>
      <use x="486.962891" xlink:href="#Georgia-73"/>
      <use x="530.175781" xlink:href="#Georgia-65"/>
      <use x="578.515625" xlink:href="#Georgia-74"/>
      <use x="613.037109" xlink:href="#Georgia-2c"/>
      <use x="639.990234" xlink:href="#Georgia-20"/>
      <use x="664.111328" xlink:href="#Georgia-41"/>
      <use x="731.201172" xlink:href="#Georgia-55"/>
      <use x="806.835938" xlink:href="#Georgia-43"/>
      <use x="871.044922" xlink:href="#Georgia-3d"/>
      <use x="935.351562" xlink:href="#Georgia-30"/>
      <use x="996.728516" xlink:href="#Georgia-2e"/>
      <use x="1023.681641" xlink:href="#Georgia-38"/>
      <use x="1083.300781" xlink:href="#Georgia-33"/>
     </g>
    </g>
    <g id="line2d_31">
     <path d="M 177.61 336.844375 
L 205.61 336.844375 
" style="fill:none;stroke:#ff7f0e;stroke-linecap:square;stroke-width:2;"/>
    </g>
    <g id="line2d_32"/>
    <g id="text_17">
     <!-- 7 km dataset, AUC=0.85 -->
     <g transform="translate(216.81 341.744375)scale(0.14 -0.14)">
      <defs>
       <path d="M 2634 1466 
Q 2841 1303 2977 1047 
Q 3113 791 3113 406 
Q 3113 -266 2653 -703 
Q 2194 -1141 1488 -1141 
Q 941 -1141 562 -881 
Q 184 -622 184 -278 
Q 184 -119 262 0 
Q 341 119 503 119 
Q 691 119 789 20 
Q 888 -78 888 -194 
Q 888 -294 853 -444 
Q 819 -594 800 -666 
Q 825 -688 881 -725 
Q 938 -763 1016 -797 
Q 1097 -831 1214 -857 
Q 1331 -884 1488 -884 
Q 1688 -884 1866 -803 
Q 2044 -722 2166 -563 
Q 2300 -388 2367 -164 
Q 2434 59 2434 403 
Q 2434 844 2189 1133 
Q 1944 1422 1544 1422 
Q 1294 1422 1076 1328 
Q 859 1234 688 1016 
L 478 1097 
L 744 3353 
L 2981 3353 
L 2981 2797 
L 997 2797 
L 834 1472 
Q 975 1572 1204 1670 
Q 1434 1769 1709 1769 
Q 1938 1769 2183 1698 
Q 2428 1628 2634 1466 
z
" id="Georgia-35" transform="scale(0.015625)"/>
      </defs>
      <use xlink:href="#Georgia-37"/>
      <use x="50.244141" xlink:href="#Georgia-20"/>
      <use x="74.365234" xlink:href="#Georgia-6b"/>
      <use x="127.929688" xlink:href="#Georgia-6d"/>
      <use x="216.015625" xlink:href="#Georgia-20"/>
      <use x="240.136719" xlink:href="#Georgia-64"/>
      <use x="297.558594" xlink:href="#Georgia-61"/>
      <use x="347.949219" xlink:href="#Georgia-74"/>
      <use x="382.470703" xlink:href="#Georgia-61"/>
      <use x="432.861328" xlink:href="#Georgia-73"/>
      <use x="476.074219" xlink:href="#Georgia-65"/>
      <use x="524.414062" xlink:href="#Georgia-74"/>
      <use x="558.935547" xlink:href="#Georgia-2c"/>
      <use x="585.888672" xlink:href="#Georgia-20"/>
      <use x="610.009766" xlink:href="#Georgia-41"/>
      <use x="677.099609" xlink:href="#Georgia-55"/>
      <use x="752.734375" xlink:href="#Georgia-43"/>
      <use x="816.943359" xlink:href="#Georgia-3d"/>
      <use x="881.25" xlink:href="#Georgia-30"/>
      <use x="942.626953" xlink:href="#Georgia-2e"/>
      <use x="969.580078" xlink:href="#Georgia-38"/>
      <use x="1029.199219" xlink:href="#Georgia-35"/>
     </g>
    </g>
    <g id="line2d_33">
     <path d="M 177.61 357.46375 
L 205.61 357.46375 
" style="fill:none;stroke:#2ca02c;stroke-dasharray:12.8,3.2,2,3.2;stroke-dashoffset:0;stroke-width:2;"/>
    </g>
    <g id="line2d_34"/>
    <g id="text_18">
     <!-- 4 km dataset, AUC=0.82 -->
     <g transform="translate(216.81 362.36375)scale(0.14 -0.14)">
      <use xlink:href="#Georgia-34"/>
      <use x="56.494141" xlink:href="#Georgia-20"/>
      <use x="80.615234" xlink:href="#Georgia-6b"/>
      <use x="134.179688" xlink:href="#Georgia-6d"/>
      <use x="222.265625" xlink:href="#Georgia-20"/>
      <use x="246.386719" xlink:href="#Georgia-64"/>
      <use x="303.808594" xlink:href="#Georgia-61"/>
      <use x="354.199219" xlink:href="#Georgia-74"/>
      <use x="388.720703" xlink:href="#Georgia-61"/>
      <use x="439.111328" xlink:href="#Georgia-73"/>
      <use x="482.324219" xlink:href="#Georgia-65"/>
      <use x="530.664062" xlink:href="#Georgia-74"/>
      <use x="565.185547" xlink:href="#Georgia-2c"/>
      <use x="592.138672" xlink:href="#Georgia-20"/>
      <use x="616.259766" xlink:href="#Georgia-41"/>
      <use x="683.349609" xlink:href="#Georgia-55"/>
      <use x="758.984375" xlink:href="#Georgia-43"/>
      <use x="823.193359" xlink:href="#Georgia-3d"/>
      <use x="887.5" xlink:href="#Georgia-30"/>
      <use x="948.876953" xlink:href="#Georgia-2e"/>
      <use x="975.830078" xlink:href="#Georgia-38"/>
      <use x="1035.449219" xlink:href="#Georgia-32"/>
     </g>
    </g>
   </g>
  </g>
 </g>
 <defs>
  <clipPath id="pa0a50fe18a">
   <rect height="326.16" width="334.8" x="54" y="51.84"/>
  </clipPath>
 </defs>
</svg>
